{
  "version": "1.0.0",
  "modules": [
    {
      "plugin": "Core",
      "version": "1.0.0",
      "model": "AudioInterface",
      "params": [],
      "data": {
        "audio": {
          "driver": 4,
          "deviceName": "system",
          "offset": 0,
          "maxChannels": 8,
          "sampleRate": 44100,
          "blockSize": 512
        }
      },
      "leftModuleId": 3,
      "id": 0,
      "pos": [
        94,
        0
      ]
    },
    {
      "plugin": "Core",
      "version": "1.0.0",
      "model": "MIDICCToCVInterface",
      "params": [],
      "data": {
        "ccs": [
          48,
          49,
          50,
          51,
          114,
          18,
          19,
          16,
          8,
          9,
          10,
          11,
          12,
          13,
          14,
          15
        ],
        "values": [
          0,
          0,
          0,
          0,
          0,
          0,
          0,
          0,
          0,
          0,
          0,
          0,
          0,
          0,
          0,
          0,
          0,
          0,
          0,
          0,
          0,
          0,
          0,
          0,
          0,
          0,
          0,
          0,
          0,
          0,
          0,
          0,
          0,
          0,
          0,
          0,
          0,
          0,
          0,
          0,
          0,
          0,
          0,
          0,
          0,
          0,
          0,
          0,
          0,
          0,
          0,
          0,
          0,
          0,
          0,
          0,
          0,
          0,
          0,
          0,
          0,
          0,
          0,
          0,
          0,
          0,
          0,
          0,
          0,
          0,
          0,
          0,
          0,
          0,
          0,
          0,
          0,
          0,
          0,
          0,
          0,
          0,
          0,
          0,
          0,
          0,
          0,
          0,
          0,
          0,
          0,
          0,
          0,
          0,
          0,
          0,
          0,
          0,
          0,
          0,
          0,
          0,
          0,
          0,
          0,
          0,
          0,
          0,
          0,
          0,
          0,
          0,
          0,
          0,
          0,
          0,
          0,
          0,
          0,
          0,
          0,
          0,
          0,
          0,
          0,
          0,
          0,
          0
        ],
        "midi": {
          "driver": 2,
          "deviceName": "Midi Through:Midi Through Port-0 14:0",
          "channel": -1
        }
      },
      "rightModuleId": 21,
      "id": 1,
      "pos": [
        0,
        1
      ]
    },
    {
      "plugin": "Valley",
      "version": "1.0.0",
      "model": "Plateau",
      "params": [
        {
          "id": 0,
          "value": 1.0
        },
        {
          "id": 1,
          "value": 0.5
        },
        {
          "id": 2,
          "value": 0.0
        },
        {
          "id": 3,
          "value": 10.0
        },
        {
          "id": 4,
          "value": 10.0
        },
        {
          "id": 5,
          "value": 0.5
        },
        {
          "id": 6,
          "value": 10.0
        },
        {
          "id": 7,
          "value": 0.549950004
        },
        {
          "id": 8,
          "value": 10.0
        },
        {
          "id": 9,
          "value": 10.0
        },
        {
          "id": 10,
          "value": 0.0
        },
        {
          "id": 11,
          "value": 0.5
        },
        {
          "id": 12,
          "value": 0.5
        },
        {
          "id": 13,
          "value": 0.0
        },
        {
          "id": 14,
          "value": 0.0
        },
        {
          "id": 15,
          "value": 0.0
        },
        {
          "id": 16,
          "value": 0.0
        },
        {
          "id": 17,
          "value": 0.0
        },
        {
          "id": 18,
          "value": 0.0
        },
        {
          "id": 19,
          "value": 0.0
        },
        {
          "id": 20,
          "value": 0.0
        },
        {
          "id": 21,
          "value": 0.0
        },
        {
          "id": 22,
          "value": 0.0
        },
        {
          "id": 23,
          "value": 0.0
        },
        {
          "id": 24,
          "value": 0.0
        },
        {
          "id": 25,
          "value": 0.0
        },
        {
          "id": 26,
          "value": 0.0
        },
        {
          "id": 27,
          "value": 0.0
        },
        {
          "id": 28,
          "value": 0.0
        },
        {
          "id": 29,
          "value": 0.0
        },
        {
          "id": 30,
          "value": 0.0
        }
      ],
      "data": {
        "frozen": false,
        "freezeToggle": false,
        "panelStyle": 0,
        "tuned": 0,
        "diffuseInput": 0,
        "preDelayCVSens": 0,
        "inputSensitivity": 0,
        "outputSaturation": 0
      },
      "leftModuleId": 27,
      "rightModuleId": 3,
      "id": 2,
      "pos": [
        78,
        0
      ]
    },
    {
      "plugin": "AS",
      "version": "1.0.0",
      "model": "StereoVUmeter",
      "params": [],
      "leftModuleId": 2,
      "rightModuleId": 0,
      "id": 3,
      "pos": [
        90,
        0
      ]
    },
    {
      "plugin": "Fundamental",
      "version": "1.0.0",
      "model": "ADSR",
      "params": [
        {
          "id": 0,
          "value": 0.00300000003
        },
        {
          "id": 1,
          "value": 0.0
        },
        {
          "id": 2,
          "value": 0.976000011
        },
        {
          "id": 3,
          "value": 0.00300000003
        }
      ],
      "leftModuleId": 15,
      "rightModuleId": 6,
      "id": 4,
      "pos": [
        14,
        0
      ]
    },
    {
      "plugin": "Fundamental",
      "version": "1.0.0",
      "model": "VCMixer",
      "params": [
        {
          "id": 0,
          "value": 0.396999985
        },
        {
          "id": 1,
          "value": 1.0
        },
        {
          "id": 2,
          "value": 1.0
        },
        {
          "id": 3,
          "value": 1.0
        },
        {
          "id": 4,
          "value": 1.0
        }
      ],
      "leftModuleId": 12,
      "rightModuleId": 27,
      "id": 5,
      "pos": [
        53,
        0
      ]
    },
    {
      "plugin": "Fundamental",
      "version": "1.0.0",
      "model": "VCA-1",
      "params": [
        {
          "id": 0,
          "value": 1.0
        },
        {
          "id": 1,
          "value": 0.0
        }
      ],
      "leftModuleId": 4,
      "rightModuleId": 18,
      "id": 6,
      "pos": [
        22,
        0
      ]
    },
    {
      "plugin": "Fundamental",
      "version": "1.0.0",
      "model": "ADSR",
      "params": [
        {
          "id": 0,
          "value": 0.0
        },
        {
          "id": 1,
          "value": 0.0
        },
        {
          "id": 2,
          "value": 0.94749999
        },
        {
          "id": 3,
          "value": 0.00449999981
        }
      ],
      "leftModuleId": 16,
      "rightModuleId": 8,
      "id": 7,
      "pos": [
        27,
        1
      ]
    },
    {
      "plugin": "Fundamental",
      "version": "1.0.0",
      "model": "VCA-1",
      "params": [
        {
          "id": 0,
          "value": 1.0
        },
        {
          "id": 1,
          "value": 0.0
        }
      ],
      "leftModuleId": 7,
      "rightModuleId": 20,
      "id": 8,
      "pos": [
        35,
        1
      ]
    },
    {
      "plugin": "Fundamental",
      "version": "1.0.0",
      "model": "ADSR",
      "params": [
        {
          "id": 0,
          "value": 0.00449999981
        },
        {
          "id": 1,
          "value": 0.0
        },
        {
          "id": 2,
          "value": 1.0
        },
        {
          "id": 3,
          "value": 0.0
        }
      ],
      "leftModuleId": 17,
      "rightModuleId": 11,
      "id": 10,
      "pos": [
        65,
        1
      ]
    },
    {
      "plugin": "Fundamental",
      "version": "1.0.0",
      "model": "VCA-1",
      "params": [
        {
          "id": 0,
          "value": 1.0
        },
        {
          "id": 1,
          "value": 0.0
        }
      ],
      "leftModuleId": 10,
      "rightModuleId": 19,
      "id": 11,
      "pos": [
        73,
        1
      ]
    },
    {
      "plugin": "AudibleInstruments",
      "version": "1.0.0",
      "model": "Marbles",
      "params": [
        {
          "id": 0,
          "value": 0.0
        },
        {
          "id": 1,
          "value": 0.0
        },
        {
          "id": 2,
          "value": 0.743000031
        },
        {
          "id": 3,
          "value": -0.140999988
        },
        {
          "id": 4,
          "value": 0.672500134
        },
        {
          "id": 5,
          "value": 0.0
        },
        {
          "id": 6,
          "value": 0.0
        },
        {
          "id": 7,
          "value": 1.0
        },
        {
          "id": 8,
          "value": 0.358999997
        },
        {
          "id": 9,
          "value": 0.5
        },
        {
          "id": 10,
          "value": 0.0
        },
        {
          "id": 11,
          "value": 0.0
        },
        {
          "id": 12,
          "value": 0.0
        },
        {
          "id": 13,
          "value": 0.497499883
        },
        {
          "id": 14,
          "value": 0.79400003
        }
      ],
      "data": {
        "t_deja_vu": true,
        "x_deja_vu": true,
        "t_mode": 2,
        "x_mode": 0,
        "t_range": 1,
        "x_range": 2,
        "external": false,
        "x_scale": 2,
        "y_divider_index": 8,
        "x_clock_source_internal": 2
      },
      "leftModuleId": 18,
      "rightModuleId": 5,
      "id": 12,
      "pos": [
        35,
        0
      ]
    },
    {
      "plugin": "Bogaudio",
      "version": "1.0.17",
      "model": "Bogaudio-FMOp",
      "params": [
        {
          "id": 0,
          "value": -0.101999998
        },
        {
          "id": 1,
          "value": 0.0
        },
        {
          "id": 2,
          "value": 0.197999969
        },
        {
          "id": 3,
          "value": 0.316229999
        },
        {
          "id": 4,
          "value": 1.0
        },
        {
          "id": 5,
          "value": 0.805230141
        },
        {
          "id": 6,
          "value": 0.475500017
        },
        {
          "id": 7,
          "value": 0.207000002
        },
        {
          "id": 8,
          "value": 1.0
        },
        {
          "id": 9,
          "value": 0.0
        },
        {
          "id": 10,
          "value": 0.0
        },
        {
          "id": 11,
          "value": 0.0
        }
      ],
      "data": {
        "linearLevel": true
      },
      "leftModuleId": 19,
      "rightModuleId": 14,
      "id": 13,
      "pos": [
        86,
        1
      ]
    },
    {
      "plugin": "AS",
      "version": "1.0.0",
      "model": "ReScale",
      "params": [
        {
          "id": 0,
          "value": 3.0
        }
      ],
      "leftModuleId": 13,
      "id": 14,
      "pos": [
        96,
        1
      ]
    },
    {
      "plugin": "LindenbergResearch",
      "version": "1.0.0",
      "model": "VCO",
      "params": [
        {
          "id": 0,
          "value": 0.0
        },
        {
          "id": 1,
          "value": -3.0
        },
        {
          "id": 2,
          "value": 0.0
        },
        {
          "id": 3,
          "value": 0.0
        },
        {
          "id": 4,
          "value": 0.0
        },
        {
          "id": 5,
          "value": 0.0
        },
        {
          "id": 6,
          "value": 0.0
        },
        {
          "id": 7,
          "value": 0.0
        }
      ],
      "rightModuleId": 4,
      "gestaltID": 1,
      "gradient": true,
      "patina": false,
      "patina_a_x": -579.452698,
      "patina_a_y": -273.690979,
      "patina_b_x": -85.8324127,
      "patina_b_y": -11.2007904,
      "id": 15,
      "pos": [
        0,
        0
      ]
    },
    {
      "plugin": "LindenbergResearch",
      "version": "1.0.0",
      "model": "VCO",
      "params": [
        {
          "id": 0,
          "value": 0.0
        },
        {
          "id": 1,
          "value": -3.0
        },
        {
          "id": 2,
          "value": 0.0
        },
        {
          "id": 3,
          "value": 0.0
        },
        {
          "id": 4,
          "value": 0.0
        },
        {
          "id": 5,
          "value": 0.0
        },
        {
          "id": 6,
          "value": 0.0
        },
        {
          "id": 7,
          "value": 0.0
        }
      ],
      "leftModuleId": 21,
      "rightModuleId": 7,
      "gestaltID": 1,
      "gradient": true,
      "patina": false,
      "patina_a_x": -579.452698,
      "patina_a_y": -273.690979,
      "patina_b_x": -85.8324127,
      "patina_b_y": -11.2007904,
      "id": 16,
      "pos": [
        13,
        1
      ]
    },
    {
      "plugin": "LindenbergResearch",
      "version": "1.0.0",
      "model": "VCO",
      "params": [
        {
          "id": 0,
          "value": 0.0
        },
        {
          "id": 1,
          "value": -3.0
        },
        {
          "id": 2,
          "value": 0.0
        },
        {
          "id": 3,
          "value": 0.0
        },
        {
          "id": 4,
          "value": 0.0
        },
        {
          "id": 5,
          "value": 0.0
        },
        {
          "id": 6,
          "value": 0.0
        },
        {
          "id": 7,
          "value": 0.0
        }
      ],
      "leftModuleId": 22,
      "rightModuleId": 10,
      "gestaltID": 1,
      "gradient": true,
      "patina": false,
      "patina_a_x": -579.452698,
      "patina_a_y": -273.690979,
      "patina_b_x": -85.8324127,
      "patina_b_y": -11.2007904,
      "id": 17,
      "pos": [
        51,
        1
      ]
    },
    {
      "plugin": "LindenbergResearch",
      "version": "1.0.0",
      "model": "LPFilter24dB",
      "params": [
        {
          "id": 0,
          "value": 0.552000046
        },
        {
          "id": 1,
          "value": 0.492000043
        },
        {
          "id": 2,
          "value": 0.506249964
        },
        {
          "id": 3,
          "value": 0.496800005
        }
      ],
      "leftModuleId": 6,
      "rightModuleId": 12,
      "gestaltID": 1,
      "gradient": true,
      "patina": false,
      "patina_a_x": -428.965027,
      "patina_a_y": -186.534576,
      "patina_b_x": -501.750946,
      "patina_b_y": -155.835846,
      "id": 18,
      "pos": [
        25,
        0
      ]
    },
    {
      "plugin": "LindenbergResearch",
      "version": "1.0.0",
      "model": "LPFilter24dB",
      "params": [
        {
          "id": 0,
          "value": 0.5
        },
        {
          "id": 1,
          "value": 0.5
        },
        {
          "id": 2,
          "value": 0.506249964
        },
        {
          "id": 3,
          "value": 0.496800005
        }
      ],
      "leftModuleId": 11,
      "rightModuleId": 13,
      "gestaltID": 1,
      "gradient": true,
      "patina": false,
      "patina_a_x": -428.965027,
      "patina_a_y": -186.534576,
      "patina_b_x": -501.750946,
      "patina_b_y": -155.835846,
      "id": 19,
      "pos": [
        76,
        1
      ]
    },
    {
      "plugin": "LindenbergResearch",
      "version": "1.0.0",
      "model": "LPFilter24dB",
      "params": [
        {
          "id": 0,
          "value": 0.5
        },
        {
          "id": 1,
          "value": 0.5
        },
        {
          "id": 2,
          "value": 0.506249964
        },
        {
          "id": 3,
          "value": 0.496800005
        }
      ],
      "leftModuleId": 8,
      "rightModuleId": 22,
      "gestaltID": 1,
      "gradient": true,
      "patina": false,
      "patina_a_x": -428.965027,
      "patina_a_y": -186.534576,
      "patina_b_x": -501.750946,
      "patina_b_y": -155.835846,
      "id": 20,
      "pos": [
        38,
        1
      ]
    },
    {
      "plugin": "Bogaudio",
      "version": "1.0.17",
      "model": "Bogaudio-Stack",
      "params": [
        {
          "id": 0,
          "value": 3.0
        },
        {
          "id": 1,
          "value": 1.0
        },
        {
          "id": 2,
          "value": 0.0
        },
        {
          "id": 3,
          "value": 1.0
        }
      ],
      "leftModuleId": 1,
      "rightModuleId": 16,
      "id": 21,
      "pos": [
        10,
        1
      ]
    },
    {
      "plugin": "Bogaudio",
      "version": "1.0.17",
      "model": "Bogaudio-Stack",
      "params": [
        {
          "id": 0,
          "value": 3.0
        },
        {
          "id": 1,
          "value": -1.0
        },
        {
          "id": 2,
          "value": -0.981090009
        },
        {
          "id": 3,
          "value": 1.0
        }
      ],
      "leftModuleId": 20,
      "rightModuleId": 17,
      "id": 22,
      "pos": [
        48,
        1
      ]
    },
    {
      "plugin": "Bogaudio",
      "version": "1.0.17",
      "model": "Bogaudio-Pressor",
      "params": [
        {
          "id": 0,
          "value": 0.800000012
        },
        {
          "id": 1,
          "value": 0.551590025
        },
        {
          "id": 2,
          "value": 0.316229999
        },
        {
          "id": 3,
          "value": 0.316229999
        },
        {
          "id": 4,
          "value": 0.0
        },
        {
          "id": 5,
          "value": 0.0
        },
        {
          "id": 6,
          "value": 0.0
        },
        {
          "id": 7,
          "value": 1.0
        },
        {
          "id": 8,
          "value": 1.0
        },
        {
          "id": 9,
          "value": 1.0
        }
      ],
      "leftModuleId": 5,
      "rightModuleId": 2,
      "id": 27,
      "pos": [
        63,
        0
      ]
    }
  ],
  "id": 86,
  "cables": [
    {
      "outputModuleId": 3,
      "outputId": 0,
      "inputModuleId": 0,
      "inputId": 0,
      "color": "#0c8e15"
    },
    {
      "outputModuleId": 3,
      "outputId": 1,
      "inputModuleId": 0,
      "inputId": 1,
      "color": "#0986ad"
    },
    {
      "outputModuleId": 2,
      "outputId": 1,
      "inputModuleId": 3,
      "inputId": 1,
      "color": "#c91847"
    },
    {
      "outputModuleId": 2,
      "outputId": 0,
      "inputModuleId": 3,
      "inputId": 0,
      "color": "#0c8e15"
    },
    {
      "outputModuleId": 4,
      "outputId": 0,
      "inputModuleId": 6,
      "inputId": 0,
      "color": "#0c8e15"
    },
    {
      "outputModuleId": 6,
      "outputId": 0,
      "inputModuleId": 18,
      "inputId": 0,
      "color": "#0c8e15"
    },
    {
      "outputModuleId": 18,
      "outputId": 0,
      "inputModuleId": 5,
      "inputId": 1,
      "color": "#0986ad"
    },
    {
      "outputModuleId": 7,
      "outputId": 0,
      "inputModuleId": 8,
      "inputId": 0,
      "color": "#c9b70e"
    },
    {
      "outputModuleId": 8,
      "outputId": 0,
      "inputModuleId": 20,
      "inputId": 0,
      "color": "#0c8e15"
    },
    {
      "outputModuleId": 20,
      "outputId": 0,
      "inputModuleId": 5,
      "inputId": 2,
      "color": "#0986ad"
    },
    {
      "outputModuleId": 11,
      "outputId": 0,
      "inputModuleId": 19,
      "inputId": 0,
      "color": "#c9b70e"
    },
    {
      "outputModuleId": 19,
      "outputId": 0,
      "inputModuleId": 5,
      "inputId": 3,
      "color": "#0c8e15"
    },
    {
      "outputModuleId": 10,
      "outputId": 0,
      "inputModuleId": 11,
      "inputId": 0,
      "color": "#0986ad"
    },
    {
      "outputModuleId": 1,
      "outputId": 2,
      "inputModuleId": 4,
      "inputId": 0,
      "color": "#c91847"
    },
    {
      "outputModuleId": 1,
      "outputId": 3,
      "inputModuleId": 4,
      "inputId": 3,
      "color": "#0986ad"
    },
    {
      "outputModuleId": 1,
      "outputId": 2,
      "inputModuleId": 7,
      "inputId": 0,
      "color": "#c91847"
    },
    {
      "outputModuleId": 1,
      "outputId": 3,
      "inputModuleId": 7,
      "inputId": 3,
      "color": "#0986ad"
    },
    {
      "outputModuleId": 1,
      "outputId": 2,
      "inputModuleId": 10,
      "inputId": 0,
      "color": "#c91847"
    },
    {
      "outputModuleId": 1,
      "outputId": 3,
      "inputModuleId": 10,
      "inputId": 3,
      "color": "#0986ad"
    },
    {
      "outputModuleId": 1,
      "outputId": 0,
      "inputModuleId": 18,
      "inputId": 1,
      "color": "#c9b70e"
    },
    {
      "outputModuleId": 1,
      "outputId": 0,
      "inputModuleId": 20,
      "inputId": 1,
      "color": "#c91847"
    },
    {
      "outputModuleId": 1,
      "outputId": 0,
      "inputModuleId": 19,
      "inputId": 1,
      "color": "#0c8e15"
    },
    {
      "outputModuleId": 1,
      "outputId": 1,
      "inputModuleId": 18,
      "inputId": 2,
      "color": "#0986ad"
    },
    {
      "outputModuleId": 1,
      "outputId": 1,
      "inputModuleId": 20,
      "inputId": 2,
      "color": "#c9b70e"
    },
    {
      "outputModuleId": 12,
      "outputId": 1,
      "inputModuleId": 10,
      "inputId": 4,
      "color": "#c91847"
    },
    {
      "outputModuleId": 12,
      "outputId": 1,
      "inputModuleId": 7,
      "inputId": 4,
      "color": "#c9b70e"
    },
    {
      "outputModuleId": 12,
      "outputId": 1,
      "inputModuleId": 4,
      "inputId": 4,
      "color": "#c91847"
    },
    {
      "outputModuleId": 14,
      "outputId": 0,
      "inputModuleId": 13,
      "inputId": 4,
      "color": "#0986ad"
    },
    {
      "outputModuleId": 12,
      "outputId": 1,
      "inputModuleId": 13,
      "inputId": 5,
      "color": "#c9b70e"
    },
    {
      "outputModuleId": 13,
      "outputId": 0,
      "inputModuleId": 5,
      "inputId": 4,
      "color": "#c91847"
    },
    {
      "outputModuleId": 15,
      "outputId": 3,
      "inputModuleId": 6,
      "inputId": 1,
      "color": "#c91847"
    },
    {
      "outputModuleId": 16,
      "outputId": 3,
      "inputModuleId": 8,
      "inputId": 1,
      "color": "#c9b70e"
    },
    {
      "outputModuleId": 17,
      "outputId": 3,
      "inputModuleId": 11,
      "inputId": 1,
      "color": "#c91847"
    },
    {
      "outputModuleId": 12,
      "outputId": 1,
      "inputModuleId": 4,
      "inputId": 5,
      "color": "#c9b70e"
    },
    {
      "outputModuleId": 12,
      "outputId": 1,
      "inputModuleId": 7,
      "inputId": 5,
      "color": "#c91847"
    },
    {
      "outputModuleId": 12,
      "outputId": 1,
      "inputModuleId": 10,
      "inputId": 5,
      "color": "#0c8e15"
    },
    {
      "outputModuleId": 14,
      "outputId": 0,
      "inputModuleId": 22,
      "inputId": 1,
      "color": "#0986ad"
    },
    {
      "outputModuleId": 12,
      "outputId": 4,
      "inputModuleId": 14,
      "inputId": 0,
      "color": "#c9b70e"
    },
    {
      "outputModuleId": 14,
      "outputId": 0,
      "inputModuleId": 21,
      "inputId": 1,
      "color": "#c91847"
    },
    {
      "outputModuleId": 12,
      "outputId": 3,
      "inputModuleId": 13,
      "inputId": 6,
      "color": "#c91847"
    },
    {
      "outputModuleId": 1,
      "outputId": 1,
      "inputModuleId": 19,
      "inputId": 2,
      "color": "#0986ad"
    },
    {
      "outputModuleId": 5,
      "outputId": 0,
      "inputModuleId": 27,
      "inputId": 0,
      "color": "#c9b70e"
    },
    {
      "outputModuleId": 5,
      "outputId": 0,
      "inputModuleId": 27,
      "inputId": 4,
      "color": "#0c8e15"
    },
    {
      "outputModuleId": 27,
      "outputId": 1,
      "inputModuleId": 2,
      "inputId": 0,
      "color": "#c91847"
    },
    {
      "outputModuleId": 27,
      "outputId": 2,
      "inputModuleId": 2,
      "inputId": 1,
      "color": "#0986ad"
    },
    {
      "outputModuleId": 21,
      "outputId": 1,
      "inputModuleId": 16,
      "inputId": 0,
      "color": "#0986ad"
    },
    {
      "outputModuleId": 14,
      "outputId": 0,
      "inputModuleId": 15,
      "inputId": 0,
      "color": "#0c8e15"
    },
    {
      "outputModuleId": 22,
      "outputId": 1,
      "inputModuleId": 17,
      "inputId": 0,
      "color": "#0c8e15"
    }
  ]
}