{
  "version": "1.1.0",
  "modules": [
    {
      "id": 0,
      "plugin": "Core",
      "version": "1.0.0",
      "model": "AudioInterface",
      "params": [],
      "leftModuleId": 4,
      "data": {
        "audio": {
          "driver": 4,
          "deviceName": "system",
          "offset": 0,
          "maxChannels": 8,
          "sampleRate": 44100,
          "blockSize": 256
        }
      },
      "pos": [
        76,
        0
      ]
    },
    {
      "id": 1,
      "plugin": "Core",
      "version": "1.0.0",
      "model": "MIDIToCVInterface",
      "params": [],
      "rightModuleId": 5,
      "data": {
        "channels": 1,
        "polyMode": 0,
        "clockDivision": 24,
        "lastPitch": 8192,
        "lastMod": 0,
        "midi": {
          "driver": 2,
          "deviceName": "Midi Through:Midi Through Port-0 14:0",
          "channel": -1
        }
      },
      "pos": [
        0,
        0
      ]
    },
    {
      "id": 2,
      "plugin": "Core",
      "version": "1.0.0",
      "model": "MIDICCToCVInterface",
      "params": [],
      "rightModuleId": 14,
      "data": {
        "ccs": [
          48,
          49,
          50,
          51,
          114,
          18,
          19,
          16,
          8,
          9,
          10,
          11,
          12,
          13,
          14,
          15
        ],
        "values": [
          0,
          0,
          0,
          0,
          0,
          0,
          0,
          0,
          0,
          0,
          0,
          0,
          0,
          0,
          0,
          0,
          0,
          0,
          0,
          0,
          0,
          0,
          0,
          0,
          0,
          0,
          0,
          0,
          0,
          0,
          0,
          0,
          0,
          0,
          0,
          0,
          0,
          0,
          0,
          0,
          0,
          0,
          0,
          0,
          0,
          0,
          0,
          0,
          0,
          0,
          0,
          0,
          0,
          0,
          0,
          0,
          0,
          0,
          0,
          0,
          0,
          0,
          0,
          0,
          0,
          0,
          0,
          0,
          0,
          0,
          0,
          0,
          0,
          0,
          0,
          0,
          0,
          0,
          0,
          0,
          0,
          0,
          0,
          0,
          0,
          0,
          0,
          0,
          0,
          0,
          0,
          0,
          0,
          0,
          0,
          0,
          0,
          0,
          0,
          0,
          0,
          0,
          0,
          0,
          0,
          0,
          0,
          0,
          0,
          0,
          0,
          0,
          0,
          0,
          0,
          0,
          0,
          0,
          0,
          0,
          0,
          0,
          0,
          0,
          0,
          0,
          0,
          0
        ],
        "midi": {
          "driver": 2,
          "deviceName": "Midi Through:Midi Through Port-0 14:0",
          "channel": -1
        }
      },
      "pos": [
        0,
        1
      ]
    },
    {
      "id": 3,
      "plugin": "Valley",
      "version": "1.0.1",
      "model": "Plateau",
      "params": [
        {
          "id": 0,
          "value": 1.0
        },
        {
          "id": 1,
          "value": 0.5
        },
        {
          "id": 2,
          "value": 0.0
        },
        {
          "id": 3,
          "value": 10.0
        },
        {
          "id": 4,
          "value": 10.0
        },
        {
          "id": 5,
          "value": 0.5
        },
        {
          "id": 6,
          "value": 10.0
        },
        {
          "id": 7,
          "value": 0.549950004
        },
        {
          "id": 8,
          "value": 10.0
        },
        {
          "id": 9,
          "value": 10.0
        },
        {
          "id": 10,
          "value": 0.0
        },
        {
          "id": 11,
          "value": 0.5
        },
        {
          "id": 12,
          "value": 0.5
        },
        {
          "id": 13,
          "value": 0.0
        },
        {
          "id": 14,
          "value": 0.0
        },
        {
          "id": 15,
          "value": 0.0
        },
        {
          "id": 16,
          "value": 0.0
        },
        {
          "id": 17,
          "value": 0.0
        },
        {
          "id": 18,
          "value": 0.0
        },
        {
          "id": 19,
          "value": 0.0
        },
        {
          "id": 20,
          "value": 0.0
        },
        {
          "id": 21,
          "value": 0.0
        },
        {
          "id": 22,
          "value": 0.0
        },
        {
          "id": 23,
          "value": 0.0
        },
        {
          "id": 24,
          "value": 0.0
        },
        {
          "id": 25,
          "value": 0.0
        },
        {
          "id": 26,
          "value": 0.0
        },
        {
          "id": 27,
          "value": 0.0
        },
        {
          "id": 28,
          "value": 0.0
        },
        {
          "id": 29,
          "value": 0.0
        },
        {
          "id": 30,
          "value": 0.0
        }
      ],
      "leftModuleId": 83,
      "rightModuleId": 4,
      "data": {
        "frozen": false,
        "freezeToggle": false,
        "panelStyle": 0,
        "tuned": 0,
        "diffuseInput": 0,
        "preDelayCVSens": 0,
        "inputSensitivity": 0,
        "outputSaturation": 0
      },
      "pos": [
        60,
        0
      ]
    },
    {
      "id": 4,
      "plugin": "AS",
      "version": "1.0.1",
      "model": "StereoVUmeter",
      "params": [],
      "leftModuleId": 3,
      "rightModuleId": 0,
      "pos": [
        72,
        0
      ]
    },
    {
      "id": 5,
      "plugin": "21kHz",
      "version": "1.0.0",
      "model": "kHzPalmLoop",
      "params": [
        {
          "id": 0,
          "value": 8.0
        },
        {
          "id": 1,
          "value": 0.0
        },
        {
          "id": 2,
          "value": 0.0
        },
        {
          "id": 3,
          "value": 0.0
        },
        {
          "id": 4,
          "value": 0.0
        }
      ],
      "leftModuleId": 1,
      "rightModuleId": 6,
      "pos": [
        8,
        0
      ]
    },
    {
      "id": 6,
      "plugin": "Fundamental",
      "version": "1.0.1",
      "model": "ADSR",
      "params": [
        {
          "id": 0,
          "value": 0.00300000003
        },
        {
          "id": 1,
          "value": 0.0
        },
        {
          "id": 2,
          "value": 0.976000011
        },
        {
          "id": 3,
          "value": 0.00300000003
        }
      ],
      "leftModuleId": 5,
      "rightModuleId": 9,
      "pos": [
        16,
        0
      ]
    },
    {
      "id": 7,
      "plugin": "Bidoo",
      "version": "1.0.0",
      "model": "pErCO",
      "params": [
        {
          "id": 0,
          "value": 0.495999843
        },
        {
          "id": 1,
          "value": 0.549100101
        },
        {
          "id": 2,
          "value": 0.91900003
        }
      ],
      "leftModuleId": 9,
      "rightModuleId": 8,
      "pos": [
        27,
        0
      ]
    },
    {
      "id": 8,
      "plugin": "Fundamental",
      "version": "1.0.1",
      "model": "VCMixer",
      "params": [
        {
          "id": 0,
          "value": 0.396999985
        },
        {
          "id": 1,
          "value": 1.0
        },
        {
          "id": 2,
          "value": 1.0
        },
        {
          "id": 3,
          "value": 1.0
        },
        {
          "id": 4,
          "value": 1.0
        }
      ],
      "leftModuleId": 7,
      "rightModuleId": 83,
      "pos": [
        35,
        0
      ]
    },
    {
      "id": 9,
      "plugin": "Fundamental",
      "version": "1.0.1",
      "model": "VCA-1",
      "params": [
        {
          "id": 0,
          "value": 1.0
        },
        {
          "id": 1,
          "value": 1.0
        }
      ],
      "leftModuleId": 6,
      "rightModuleId": 7,
      "pos": [
        24,
        0
      ]
    },
    {
      "id": 10,
      "plugin": "21kHz",
      "version": "1.0.0",
      "model": "kHzPalmLoop",
      "params": [
        {
          "id": 0,
          "value": 8.0
        },
        {
          "id": 1,
          "value": 0.0
        },
        {
          "id": 2,
          "value": 0.0
        },
        {
          "id": 3,
          "value": 0.0
        },
        {
          "id": 4,
          "value": 0.0
        }
      ],
      "leftModuleId": 14,
      "rightModuleId": 11,
      "pos": [
        14,
        1
      ]
    },
    {
      "id": 11,
      "plugin": "Fundamental",
      "version": "1.0.1",
      "model": "ADSR",
      "params": [
        {
          "id": 0,
          "value": 0.0
        },
        {
          "id": 1,
          "value": 0.0
        },
        {
          "id": 2,
          "value": 0.94749999
        },
        {
          "id": 3,
          "value": 0.00449999981
        }
      ],
      "leftModuleId": 10,
      "rightModuleId": 12,
      "pos": [
        22,
        1
      ]
    },
    {
      "id": 12,
      "plugin": "Fundamental",
      "version": "1.0.1",
      "model": "VCA-1",
      "params": [
        {
          "id": 0,
          "value": 1.0
        },
        {
          "id": 1,
          "value": 1.0
        }
      ],
      "leftModuleId": 11,
      "rightModuleId": 13,
      "pos": [
        30,
        1
      ]
    },
    {
      "id": 13,
      "plugin": "Bidoo",
      "version": "1.0.0",
      "model": "pErCO",
      "params": [
        {
          "id": 0,
          "value": 0.509499848
        },
        {
          "id": 1,
          "value": 0.546399951
        },
        {
          "id": 2,
          "value": 1.0
        }
      ],
      "leftModuleId": 12,
      "rightModuleId": 20,
      "pos": [
        33,
        1
      ]
    },
    {
      "id": 14,
      "plugin": "21kHz",
      "version": "1.0.0",
      "model": "kHzD_Inf",
      "params": [
        {
          "id": 0,
          "value": 1.0
        },
        {
          "id": 1,
          "value": 3.0
        },
        {
          "id": 2,
          "value": 0.0
        },
        {
          "id": 3,
          "value": 0.0
        }
      ],
      "leftModuleId": 2,
      "rightModuleId": 10,
      "pos": [
        10,
        1
      ]
    },
    {
      "id": 16,
      "plugin": "21kHz",
      "version": "1.0.0",
      "model": "kHzPalmLoop",
      "params": [
        {
          "id": 0,
          "value": 8.0
        },
        {
          "id": 1,
          "value": 0.0
        },
        {
          "id": 2,
          "value": 0.0
        },
        {
          "id": 3,
          "value": 0.0
        },
        {
          "id": 4,
          "value": 0.0
        }
      ],
      "leftModuleId": 20,
      "rightModuleId": 17,
      "pos": [
        45,
        1
      ]
    },
    {
      "id": 17,
      "plugin": "Fundamental",
      "version": "1.0.1",
      "model": "ADSR",
      "params": [
        {
          "id": 0,
          "value": 0.00449999981
        },
        {
          "id": 1,
          "value": 0.0
        },
        {
          "id": 2,
          "value": 1.0
        },
        {
          "id": 3,
          "value": 0.0
        }
      ],
      "leftModuleId": 16,
      "rightModuleId": 18,
      "pos": [
        53,
        1
      ]
    },
    {
      "id": 18,
      "plugin": "Fundamental",
      "version": "1.0.1",
      "model": "VCA-1",
      "params": [
        {
          "id": 0,
          "value": 1.0
        },
        {
          "id": 1,
          "value": 1.0
        }
      ],
      "leftModuleId": 17,
      "rightModuleId": 19,
      "pos": [
        61,
        1
      ]
    },
    {
      "id": 19,
      "plugin": "Bidoo",
      "version": "1.0.0",
      "model": "pErCO",
      "params": [
        {
          "id": 0,
          "value": 0.506499946
        },
        {
          "id": 1,
          "value": 0.54279995
        },
        {
          "id": 2,
          "value": 1.0
        }
      ],
      "leftModuleId": 18,
      "rightModuleId": 84,
      "pos": [
        64,
        1
      ]
    },
    {
      "id": 20,
      "plugin": "21kHz",
      "version": "1.0.0",
      "model": "kHzD_Inf",
      "params": [
        {
          "id": 0,
          "value": -1.0
        },
        {
          "id": 1,
          "value": 3.0
        },
        {
          "id": 2,
          "value": 0.0
        },
        {
          "id": 3,
          "value": 0.0
        }
      ],
      "leftModuleId": 13,
      "rightModuleId": 16,
      "pos": [
        41,
        1
      ]
    },
    {
      "id": 83,
      "plugin": "Bogaudio",
      "version": "1.0.17",
      "model": "Bogaudio-Pressor",
      "params": [
        {
          "id": 0,
          "value": 0.800000012
        },
        {
          "id": 1,
          "value": 1.0
        },
        {
          "id": 2,
          "value": 0.316229999
        },
        {
          "id": 3,
          "value": 0.316229999
        },
        {
          "id": 4,
          "value": 0.0
        },
        {
          "id": 5,
          "value": -1.0
        },
        {
          "id": 6,
          "value": 0.0
        },
        {
          "id": 7,
          "value": 1.0
        },
        {
          "id": 8,
          "value": 1.0
        },
        {
          "id": 9,
          "value": 1.0
        }
      ],
      "leftModuleId": 8,
      "rightModuleId": 3,
      "pos": [
        45,
        0
      ]
    },
    {
      "id": 84,
      "plugin": "Fundamental",
      "version": "1.0.1",
      "model": "Scope",
      "params": [
        {
          "id": 0,
          "value": 0.0
        },
        {
          "id": 1,
          "value": 0.0
        },
        {
          "id": 2,
          "value": 0.0
        },
        {
          "id": 3,
          "value": 0.0
        },
        {
          "id": 4,
          "value": 14.0
        },
        {
          "id": 5,
          "value": 0.0
        },
        {
          "id": 6,
          "value": 0.0
        },
        {
          "id": 7,
          "value": 0.0
        }
      ],
      "leftModuleId": 19,
      "data": {
        "lissajous": 0,
        "external": 0
      },
      "pos": [
        72,
        1
      ]
    }
  ],
  "cables": [
    {
      "id": 166,
      "outputModuleId": 4,
      "outputId": 0,
      "inputModuleId": 0,
      "inputId": 0,
      "color": "#0c8e15"
    },
    {
      "id": 167,
      "outputModuleId": 4,
      "outputId": 1,
      "inputModuleId": 0,
      "inputId": 1,
      "color": "#0986ad"
    },
    {
      "id": 168,
      "outputModuleId": 3,
      "outputId": 1,
      "inputModuleId": 4,
      "inputId": 1,
      "color": "#c91847"
    },
    {
      "id": 169,
      "outputModuleId": 3,
      "outputId": 0,
      "inputModuleId": 4,
      "inputId": 0,
      "color": "#0c8e15"
    },
    {
      "id": 170,
      "outputModuleId": 1,
      "outputId": 0,
      "inputModuleId": 5,
      "inputId": 1,
      "color": "#c9b70e"
    },
    {
      "id": 171,
      "outputModuleId": 6,
      "outputId": 0,
      "inputModuleId": 9,
      "inputId": 0,
      "color": "#0c8e15"
    },
    {
      "id": 172,
      "outputModuleId": 1,
      "outputId": 1,
      "inputModuleId": 6,
      "inputId": 4,
      "color": "#0986ad"
    },
    {
      "id": 173,
      "outputModuleId": 1,
      "outputId": 6,
      "inputModuleId": 6,
      "inputId": 5,
      "color": "#c9b70e"
    },
    {
      "id": 174,
      "outputModuleId": 5,
      "outputId": 0,
      "inputModuleId": 9,
      "inputId": 1,
      "color": "#c91847"
    },
    {
      "id": 175,
      "outputModuleId": 9,
      "outputId": 0,
      "inputModuleId": 7,
      "inputId": 0,
      "color": "#0c8e15"
    },
    {
      "id": 176,
      "outputModuleId": 7,
      "outputId": 0,
      "inputModuleId": 8,
      "inputId": 1,
      "color": "#0986ad"
    },
    {
      "id": 177,
      "outputModuleId": 1,
      "outputId": 0,
      "inputModuleId": 14,
      "inputId": 2,
      "color": "#0c8e15"
    },
    {
      "id": 178,
      "outputModuleId": 14,
      "outputId": 0,
      "inputModuleId": 10,
      "inputId": 1,
      "color": "#0986ad"
    },
    {
      "id": 179,
      "outputModuleId": 1,
      "outputId": 6,
      "inputModuleId": 11,
      "inputId": 5,
      "color": "#0c8e15"
    },
    {
      "id": 180,
      "outputModuleId": 1,
      "outputId": 1,
      "inputModuleId": 11,
      "inputId": 4,
      "color": "#0986ad"
    },
    {
      "id": 181,
      "outputModuleId": 11,
      "outputId": 0,
      "inputModuleId": 12,
      "inputId": 0,
      "color": "#c9b70e"
    },
    {
      "id": 182,
      "outputModuleId": 12,
      "outputId": 0,
      "inputModuleId": 13,
      "inputId": 0,
      "color": "#0c8e15"
    },
    {
      "id": 183,
      "outputModuleId": 13,
      "outputId": 0,
      "inputModuleId": 8,
      "inputId": 2,
      "color": "#0986ad"
    },
    {
      "id": 184,
      "outputModuleId": 10,
      "outputId": 0,
      "inputModuleId": 12,
      "inputId": 1,
      "color": "#c9b70e"
    },
    {
      "id": 185,
      "outputModuleId": 1,
      "outputId": 0,
      "inputModuleId": 20,
      "inputId": 2,
      "color": "#0c8e15"
    },
    {
      "id": 186,
      "outputModuleId": 18,
      "outputId": 0,
      "inputModuleId": 19,
      "inputId": 0,
      "color": "#c9b70e"
    },
    {
      "id": 187,
      "outputModuleId": 19,
      "outputId": 0,
      "inputModuleId": 8,
      "inputId": 3,
      "color": "#0c8e15"
    },
    {
      "id": 188,
      "outputModuleId": 17,
      "outputId": 0,
      "inputModuleId": 18,
      "inputId": 0,
      "color": "#0986ad"
    },
    {
      "id": 189,
      "outputModuleId": 1,
      "outputId": 6,
      "inputModuleId": 17,
      "inputId": 5,
      "color": "#c91847"
    },
    {
      "id": 190,
      "outputModuleId": 16,
      "outputId": 0,
      "inputModuleId": 18,
      "inputId": 1,
      "color": "#0986ad"
    },
    {
      "id": 191,
      "outputModuleId": 2,
      "outputId": 2,
      "inputModuleId": 6,
      "inputId": 0,
      "color": "#c91847"
    },
    {
      "id": 192,
      "outputModuleId": 2,
      "outputId": 3,
      "inputModuleId": 6,
      "inputId": 3,
      "color": "#0986ad"
    },
    {
      "id": 193,
      "outputModuleId": 2,
      "outputId": 2,
      "inputModuleId": 11,
      "inputId": 0,
      "color": "#c91847"
    },
    {
      "id": 194,
      "outputModuleId": 2,
      "outputId": 3,
      "inputModuleId": 11,
      "inputId": 3,
      "color": "#0986ad"
    },
    {
      "id": 195,
      "outputModuleId": 2,
      "outputId": 2,
      "inputModuleId": 17,
      "inputId": 0,
      "color": "#c91847"
    },
    {
      "id": 196,
      "outputModuleId": 2,
      "outputId": 3,
      "inputModuleId": 17,
      "inputId": 3,
      "color": "#0986ad"
    },
    {
      "id": 197,
      "outputModuleId": 2,
      "outputId": 0,
      "inputModuleId": 7,
      "inputId": 1,
      "color": "#c9b70e"
    },
    {
      "id": 198,
      "outputModuleId": 2,
      "outputId": 0,
      "inputModuleId": 13,
      "inputId": 1,
      "color": "#c91847"
    },
    {
      "id": 199,
      "outputModuleId": 2,
      "outputId": 0,
      "inputModuleId": 19,
      "inputId": 1,
      "color": "#0c8e15"
    },
    {
      "id": 200,
      "outputModuleId": 2,
      "outputId": 1,
      "inputModuleId": 7,
      "inputId": 2,
      "color": "#0986ad"
    },
    {
      "id": 201,
      "outputModuleId": 2,
      "outputId": 1,
      "inputModuleId": 13,
      "inputId": 2,
      "color": "#c9b70e"
    },
    {
      "id": 202,
      "outputModuleId": 2,
      "outputId": 1,
      "inputModuleId": 19,
      "inputId": 2,
      "color": "#c91847"
    },
    {
      "id": 203,
      "outputModuleId": 1,
      "outputId": 1,
      "inputModuleId": 17,
      "inputId": 4,
      "color": "#c9b70e"
    },
    {
      "id": 204,
      "outputModuleId": 20,
      "outputId": 0,
      "inputModuleId": 16,
      "inputId": 1,
      "color": "#c9b70e"
    },
    {
      "id": 206,
      "outputModuleId": 8,
      "outputId": 0,
      "inputModuleId": 83,
      "inputId": 0,
      "color": "#c91847"
    },
    {
      "id": 207,
      "outputModuleId": 8,
      "outputId": 0,
      "inputModuleId": 83,
      "inputId": 4,
      "color": "#0986ad"
    },
    {
      "id": 208,
      "outputModuleId": 83,
      "outputId": 1,
      "inputModuleId": 3,
      "inputId": 0,
      "color": "#c9b70e"
    },
    {
      "id": 209,
      "outputModuleId": 83,
      "outputId": 2,
      "inputModuleId": 3,
      "inputId": 1,
      "color": "#0c8e15"
    },
    {
      "id": 319,
      "outputModuleId": 4,
      "outputId": 0,
      "inputModuleId": 84,
      "inputId": 0,
      "color": "#c9b70e"
    },
    {
      "id": 320,
      "outputModuleId": 4,
      "outputId": 1,
      "inputModuleId": 84,
      "inputId": 1,
      "color": "#0c8e15"
    }
  ]
}