{
  "version": "1.1.0",
  "modules": [
    {
      "id": 0,
      "plugin": "Core",
      "version": "1.0.0",
      "model": "AudioInterface",
      "params": [],
      "leftModuleId": 3,
      "rightModuleId": 83,
      "data": {
        "audio": {
          "driver": 4,
          "deviceName": "system",
          "offset": 0,
          "maxChannels": 8,
          "sampleRate": 44100,
          "blockSize": 256
        }
      },
      "pos": [
        84,
        0
      ]
    },
    {
      "id": 1,
      "plugin": "Core",
      "version": "1.0.0",
      "model": "MIDICCToCVInterface",
      "params": [],
      "rightModuleId": 7,
      "data": {
        "ccs": [
          48,
          49,
          50,
          51,
          17,
          91,
          79,
          72,
          7,
          74,
          10,
          11,
          114,
          18,
          19,
          16
        ],
        "values": [
          0,
          0,
          0,
          0,
          0,
          0,
          0,
          0,
          0,
          0,
          0,
          0,
          0,
          0,
          0,
          0,
          0,
          0,
          0,
          0,
          0,
          0,
          0,
          0,
          0,
          0,
          0,
          0,
          0,
          0,
          0,
          0,
          0,
          0,
          0,
          0,
          0,
          0,
          0,
          0,
          0,
          0,
          0,
          0,
          0,
          0,
          0,
          0,
          0,
          0,
          0,
          0,
          0,
          0,
          0,
          0,
          0,
          0,
          0,
          0,
          0,
          0,
          0,
          0,
          0,
          0,
          0,
          0,
          0,
          0,
          0,
          0,
          0,
          0,
          0,
          0,
          0,
          0,
          0,
          0,
          0,
          0,
          0,
          0,
          0,
          0,
          0,
          0,
          0,
          0,
          0,
          0,
          0,
          0,
          0,
          0,
          0,
          0,
          0,
          0,
          0,
          0,
          0,
          0,
          0,
          0,
          0,
          0,
          0,
          0,
          0,
          0,
          0,
          0,
          0,
          0,
          0,
          0,
          0,
          0,
          0,
          0,
          0,
          0,
          0,
          0,
          0,
          0
        ],
        "midi": {
          "driver": 2,
          "deviceName": "Midi Through:Midi Through Port-0 14:0",
          "channel": -1
        }
      },
      "pos": [
        0,
        0
      ]
    },
    {
      "id": 3,
      "plugin": "AS",
      "version": "1.0.1",
      "model": "StereoVUmeter",
      "params": [],
      "leftModuleId": 8,
      "rightModuleId": 0,
      "pos": [
        80,
        0
      ]
    },
    {
      "id": 5,
      "plugin": "Fundamental",
      "version": "1.0.1",
      "model": "ADSR",
      "params": [
        {
          "id": 0,
          "value": 0.0
        },
        {
          "id": 1,
          "value": 0.00150000001
        },
        {
          "id": 2,
          "value": 1.0
        },
        {
          "id": 3,
          "value": 0.0104999999
        }
      ],
      "leftModuleId": 28,
      "rightModuleId": 6,
      "pos": [
        32,
        0
      ]
    },
    {
      "id": 6,
      "plugin": "Fundamental",
      "version": "1.0.1",
      "model": "VCA-1",
      "params": [
        {
          "id": 0,
          "value": 0.561999977
        },
        {
          "id": 1,
          "value": 1.0
        }
      ],
      "leftModuleId": 5,
      "rightModuleId": 29,
      "pos": [
        40,
        0
      ]
    },
    {
      "id": 7,
      "plugin": "Core",
      "version": "1.0.0",
      "model": "MIDIToCVInterface",
      "params": [],
      "leftModuleId": 1,
      "rightModuleId": 28,
      "data": {
        "channels": 1,
        "polyMode": 0,
        "clockDivision": 24,
        "lastPitch": 8192,
        "lastMod": 0,
        "midi": {
          "driver": 2,
          "deviceName": "Midi Through:Midi Through Port-0 14:0",
          "channel": -1
        }
      },
      "pos": [
        10,
        0
      ]
    },
    {
      "id": 8,
      "plugin": "Valley",
      "version": "1.0.1",
      "model": "Plateau",
      "params": [
        {
          "id": 0,
          "value": 1.0
        },
        {
          "id": 1,
          "value": 0.5
        },
        {
          "id": 2,
          "value": 0.0
        },
        {
          "id": 3,
          "value": 10.0
        },
        {
          "id": 4,
          "value": 10.0
        },
        {
          "id": 5,
          "value": 0.5
        },
        {
          "id": 6,
          "value": 10.0
        },
        {
          "id": 7,
          "value": 0.549950004
        },
        {
          "id": 8,
          "value": 10.0
        },
        {
          "id": 9,
          "value": 10.0
        },
        {
          "id": 10,
          "value": 0.0
        },
        {
          "id": 11,
          "value": 0.5
        },
        {
          "id": 12,
          "value": 0.5
        },
        {
          "id": 13,
          "value": 0.0
        },
        {
          "id": 14,
          "value": 0.0
        },
        {
          "id": 15,
          "value": 0.0
        },
        {
          "id": 16,
          "value": 0.0
        },
        {
          "id": 17,
          "value": 0.0
        },
        {
          "id": 18,
          "value": 0.0
        },
        {
          "id": 19,
          "value": 0.0
        },
        {
          "id": 20,
          "value": 0.0
        },
        {
          "id": 21,
          "value": 0.0
        },
        {
          "id": 22,
          "value": 0.0
        },
        {
          "id": 23,
          "value": 0.0
        },
        {
          "id": 24,
          "value": 0.0
        },
        {
          "id": 25,
          "value": 0.0
        },
        {
          "id": 26,
          "value": 0.0
        },
        {
          "id": 27,
          "value": 0.0
        },
        {
          "id": 28,
          "value": 0.0
        },
        {
          "id": 29,
          "value": 0.0
        },
        {
          "id": 30,
          "value": 0.0
        }
      ],
      "leftModuleId": 30,
      "rightModuleId": 3,
      "data": {
        "frozen": false,
        "freezeToggle": false,
        "panelStyle": 0,
        "tuned": 0,
        "diffuseInput": 0,
        "preDelayCVSens": 0,
        "inputSensitivity": 0,
        "outputSaturation": 0
      },
      "pos": [
        68,
        0
      ]
    },
    {
      "id": 28,
      "plugin": "LindenbergResearch",
      "version": "1.0.0",
      "model": "VCO",
      "params": [
        {
          "id": 0,
          "value": 0.0
        },
        {
          "id": 1,
          "value": 0.0
        },
        {
          "id": 2,
          "value": 0.0
        },
        {
          "id": 3,
          "value": 0.0
        },
        {
          "id": 4,
          "value": 0.0
        },
        {
          "id": 5,
          "value": 0.0
        },
        {
          "id": 6,
          "value": 0.0
        },
        {
          "id": 7,
          "value": 0.0
        }
      ],
      "leftModuleId": 7,
      "rightModuleId": 5,
      "gestaltID": 1,
      "gradient": true,
      "patina": false,
      "patina_a_x": -734.108704,
      "patina_a_y": -341.132874,
      "patina_b_x": -530.231567,
      "patina_b_y": -72.9577713,
      "pos": [
        18,
        0
      ]
    },
    {
      "id": 29,
      "plugin": "LindenbergResearch",
      "version": "1.0.0",
      "model": "LPFilter24dB",
      "params": [
        {
          "id": 0,
          "value": 0.5
        },
        {
          "id": 1,
          "value": 0.5
        },
        {
          "id": 2,
          "value": 0.0
        },
        {
          "id": 3,
          "value": 0.0
        }
      ],
      "leftModuleId": 6,
      "rightModuleId": 30,
      "gestaltID": 1,
      "gradient": true,
      "patina": false,
      "patina_a_x": -842.185913,
      "patina_a_y": -104.894615,
      "patina_b_x": -88.2664795,
      "patina_b_y": -60.4938431,
      "pos": [
        43,
        0
      ]
    },
    {
      "id": 30,
      "plugin": "Bogaudio",
      "version": "1.0.17",
      "model": "Bogaudio-Pressor",
      "params": [
        {
          "id": 0,
          "value": 0.800000012
        },
        {
          "id": 1,
          "value": 0.551590025
        },
        {
          "id": 2,
          "value": 0.316229999
        },
        {
          "id": 3,
          "value": 0.316229999
        },
        {
          "id": 4,
          "value": 0.0
        },
        {
          "id": 5,
          "value": 0.0
        },
        {
          "id": 6,
          "value": 0.0
        },
        {
          "id": 7,
          "value": 1.0
        },
        {
          "id": 8,
          "value": 1.0
        },
        {
          "id": 9,
          "value": 1.0
        }
      ],
      "leftModuleId": 29,
      "rightModuleId": 8,
      "pos": [
        53,
        0
      ]
    },
    {
      "id": 83,
      "plugin": "Fundamental",
      "version": "1.0.1",
      "model": "Scope",
      "params": [
        {
          "id": 0,
          "value": 0.0
        },
        {
          "id": 1,
          "value": 0.0
        },
        {
          "id": 2,
          "value": 0.0
        },
        {
          "id": 3,
          "value": 0.0
        },
        {
          "id": 4,
          "value": 14.0
        },
        {
          "id": 5,
          "value": 0.0
        },
        {
          "id": 6,
          "value": 0.0
        },
        {
          "id": 7,
          "value": 0.0
        }
      ],
      "leftModuleId": 0,
      "data": {
        "lissajous": 0,
        "external": 0
      },
      "pos": [
        94,
        0
      ]
    }
  ],
  "cables": [
    {
      "id": 297,
      "outputModuleId": 3,
      "outputId": 0,
      "inputModuleId": 0,
      "inputId": 0,
      "color": "#0c8e15"
    },
    {
      "id": 298,
      "outputModuleId": 3,
      "outputId": 1,
      "inputModuleId": 0,
      "inputId": 1,
      "color": "#0986ad"
    },
    {
      "id": 299,
      "outputModuleId": 5,
      "outputId": 0,
      "inputModuleId": 6,
      "inputId": 0,
      "color": "#0c8e15"
    },
    {
      "id": 300,
      "outputModuleId": 1,
      "outputId": 3,
      "inputModuleId": 5,
      "inputId": 3,
      "color": "#c9b70e"
    },
    {
      "id": 301,
      "outputModuleId": 7,
      "outputId": 1,
      "inputModuleId": 5,
      "inputId": 4,
      "color": "#0c8e15"
    },
    {
      "id": 302,
      "outputModuleId": 7,
      "outputId": 6,
      "inputModuleId": 5,
      "inputId": 5,
      "color": "#0986ad"
    },
    {
      "id": 303,
      "outputModuleId": 8,
      "outputId": 0,
      "inputModuleId": 3,
      "inputId": 0,
      "color": "#0c8e15"
    },
    {
      "id": 304,
      "outputModuleId": 8,
      "outputId": 1,
      "inputModuleId": 3,
      "inputId": 1,
      "color": "#0986ad"
    },
    {
      "id": 305,
      "outputModuleId": 1,
      "outputId": 2,
      "inputModuleId": 5,
      "inputId": 0,
      "color": "#0c8e15"
    },
    {
      "id": 306,
      "outputModuleId": 7,
      "outputId": 0,
      "inputModuleId": 28,
      "inputId": 0,
      "color": "#0986ad"
    },
    {
      "id": 307,
      "outputModuleId": 28,
      "outputId": 3,
      "inputModuleId": 6,
      "inputId": 1,
      "color": "#c9b70e"
    },
    {
      "id": 308,
      "outputModuleId": 6,
      "outputId": 0,
      "inputModuleId": 29,
      "inputId": 0,
      "color": "#0c8e15"
    },
    {
      "id": 309,
      "outputModuleId": 29,
      "outputId": 0,
      "inputModuleId": 30,
      "inputId": 0,
      "color": "#c91847"
    },
    {
      "id": 310,
      "outputModuleId": 29,
      "outputId": 0,
      "inputModuleId": 30,
      "inputId": 4,
      "color": "#0986ad"
    },
    {
      "id": 311,
      "outputModuleId": 1,
      "outputId": 0,
      "inputModuleId": 29,
      "inputId": 1,
      "color": "#c9b70e"
    },
    {
      "id": 312,
      "outputModuleId": 1,
      "outputId": 1,
      "inputModuleId": 29,
      "inputId": 2,
      "color": "#0c8e15"
    },
    {
      "id": 313,
      "outputModuleId": 30,
      "outputId": 1,
      "inputModuleId": 8,
      "inputId": 0,
      "color": "#c91847"
    },
    {
      "id": 314,
      "outputModuleId": 30,
      "outputId": 2,
      "inputModuleId": 8,
      "inputId": 1,
      "color": "#0986ad"
    },
    {
      "id": 317,
      "outputModuleId": 3,
      "outputId": 0,
      "inputModuleId": 83,
      "inputId": 0,
      "color": "#c91847"
    },
    {
      "id": 318,
      "outputModuleId": 3,
      "outputId": 1,
      "inputModuleId": 83,
      "inputId": 1,
      "color": "#0986ad"
    }
  ]
}