{
  "version": "1.1.0",
  "modules": [
    {
      "id": 0,
      "plugin": "Core",
      "version": "1.0.0",
      "model": "AudioInterface",
      "params": [],
      "leftModuleId": 3,
      "rightModuleId": 83,
      "data": {
        "audio": {
          "driver": 4,
          "deviceName": "system",
          "offset": 0,
          "maxChannels": 8,
          "sampleRate": 44100,
          "blockSize": 256
        }
      },
      "pos": [
        76,
        0
      ]
    },
    {
      "id": 1,
      "plugin": "Core",
      "version": "1.0.0",
      "model": "MIDICCToCVInterface",
      "params": [],
      "rightModuleId": 7,
      "data": {
        "ccs": [
          48,
          49,
          50,
          51,
          17,
          91,
          79,
          72,
          7,
          74,
          10,
          11,
          114,
          18,
          19,
          16
        ],
        "values": [
          0,
          0,
          0,
          0,
          0,
          0,
          0,
          73,
          0,
          0,
          0,
          0,
          0,
          0,
          0,
          0,
          0,
          0,
          0,
          0,
          0,
          0,
          0,
          0,
          0,
          0,
          0,
          0,
          0,
          0,
          0,
          0,
          0,
          0,
          0,
          0,
          0,
          0,
          0,
          0,
          0,
          0,
          0,
          0,
          0,
          0,
          0,
          0,
          0,
          0,
          0,
          0,
          0,
          0,
          0,
          0,
          0,
          0,
          0,
          0,
          0,
          0,
          0,
          0,
          0,
          0,
          0,
          0,
          0,
          0,
          0,
          68,
          0,
          0,
          65,
          0,
          0,
          0,
          0,
          0,
          0,
          0,
          0,
          0,
          0,
          0,
          0,
          0,
          0,
          0,
          0,
          0,
          0,
          0,
          0,
          0,
          0,
          0,
          0,
          0,
          0,
          0,
          0,
          0,
          0,
          0,
          0,
          0,
          0,
          0,
          0,
          0,
          0,
          0,
          0,
          0,
          0,
          0,
          0,
          0,
          0,
          0,
          0,
          0,
          0,
          0,
          0,
          0
        ],
        "midi": {
          "driver": 2,
          "deviceName": "Midi Through:Midi Through Port-0 14:0",
          "channel": -1
        }
      },
      "pos": [
        0,
        0
      ]
    },
    {
      "id": 2,
      "plugin": "21kHz",
      "version": "1.0.0",
      "model": "kHzPalmLoop",
      "params": [
        {
          "id": 0,
          "value": 8.0
        },
        {
          "id": 1,
          "value": 0.0
        },
        {
          "id": 2,
          "value": 0.0
        },
        {
          "id": 3,
          "value": 0.0
        },
        {
          "id": 4,
          "value": 0.0
        }
      ],
      "leftModuleId": 7,
      "rightModuleId": 5,
      "pos": [
        18,
        0
      ]
    },
    {
      "id": 3,
      "plugin": "AS",
      "version": "1.0.1",
      "model": "StereoVUmeter",
      "params": [],
      "leftModuleId": 8,
      "rightModuleId": 0,
      "pos": [
        72,
        0
      ]
    },
    {
      "id": 4,
      "plugin": "Bidoo",
      "version": "1.0.0",
      "model": "pErCO",
      "params": [
        {
          "id": 0,
          "value": 0.499000102
        },
        {
          "id": 1,
          "value": 0.544149935
        },
        {
          "id": 2,
          "value": 1.0
        }
      ],
      "leftModuleId": 6,
      "rightModuleId": 82,
      "pos": [
        37,
        0
      ]
    },
    {
      "id": 5,
      "plugin": "Fundamental",
      "version": "1.0.1",
      "model": "ADSR",
      "params": [
        {
          "id": 0,
          "value": 0.0
        },
        {
          "id": 1,
          "value": 0.00150000001
        },
        {
          "id": 2,
          "value": 1.0
        },
        {
          "id": 3,
          "value": 0.0104999999
        }
      ],
      "leftModuleId": 2,
      "rightModuleId": 6,
      "pos": [
        26,
        0
      ]
    },
    {
      "id": 6,
      "plugin": "Fundamental",
      "version": "1.0.1",
      "model": "VCA-1",
      "params": [
        {
          "id": 0,
          "value": 0.561999977
        },
        {
          "id": 1,
          "value": 1.0
        }
      ],
      "leftModuleId": 5,
      "rightModuleId": 4,
      "pos": [
        34,
        0
      ]
    },
    {
      "id": 7,
      "plugin": "Core",
      "version": "1.0.0",
      "model": "MIDIToCVInterface",
      "params": [],
      "leftModuleId": 1,
      "rightModuleId": 2,
      "data": {
        "channels": 1,
        "polyMode": 0,
        "clockDivision": 24,
        "lastPitch": 8192,
        "lastMod": 0,
        "midi": {
          "driver": 2,
          "deviceName": "Midi Through:Midi Through Port-0 14:0",
          "channel": -1
        }
      },
      "pos": [
        10,
        0
      ]
    },
    {
      "id": 8,
      "plugin": "Valley",
      "version": "1.0.1",
      "model": "Plateau",
      "params": [
        {
          "id": 0,
          "value": 1.0
        },
        {
          "id": 1,
          "value": 0.5
        },
        {
          "id": 2,
          "value": 0.0
        },
        {
          "id": 3,
          "value": 10.0
        },
        {
          "id": 4,
          "value": 10.0
        },
        {
          "id": 5,
          "value": 0.5
        },
        {
          "id": 6,
          "value": 10.0
        },
        {
          "id": 7,
          "value": 0.549950004
        },
        {
          "id": 8,
          "value": 10.0
        },
        {
          "id": 9,
          "value": 10.0
        },
        {
          "id": 10,
          "value": 0.0
        },
        {
          "id": 11,
          "value": 0.5
        },
        {
          "id": 12,
          "value": 0.5
        },
        {
          "id": 13,
          "value": 0.0
        },
        {
          "id": 14,
          "value": 0.0
        },
        {
          "id": 15,
          "value": 0.0
        },
        {
          "id": 16,
          "value": 0.0
        },
        {
          "id": 17,
          "value": 0.0
        },
        {
          "id": 18,
          "value": 0.0
        },
        {
          "id": 19,
          "value": 0.0
        },
        {
          "id": 20,
          "value": 0.0
        },
        {
          "id": 21,
          "value": 0.0
        },
        {
          "id": 22,
          "value": 0.0
        },
        {
          "id": 23,
          "value": 0.0
        },
        {
          "id": 24,
          "value": 0.0
        },
        {
          "id": 25,
          "value": 0.0
        },
        {
          "id": 26,
          "value": 0.0
        },
        {
          "id": 27,
          "value": 0.0
        },
        {
          "id": 28,
          "value": 0.0
        },
        {
          "id": 29,
          "value": 0.0
        },
        {
          "id": 30,
          "value": 0.0
        }
      ],
      "leftModuleId": 82,
      "rightModuleId": 3,
      "data": {
        "frozen": false,
        "freezeToggle": false,
        "panelStyle": 0,
        "tuned": 0,
        "diffuseInput": 0,
        "preDelayCVSens": 0,
        "inputSensitivity": 0,
        "outputSaturation": 0
      },
      "pos": [
        60,
        0
      ]
    },
    {
      "id": 82,
      "plugin": "Bogaudio",
      "version": "1.0.17",
      "model": "Bogaudio-Pressor",
      "params": [
        {
          "id": 0,
          "value": 0.800000012
        },
        {
          "id": 1,
          "value": 1.0
        },
        {
          "id": 2,
          "value": 0.316229999
        },
        {
          "id": 3,
          "value": 0.316229999
        },
        {
          "id": 4,
          "value": 0.0
        },
        {
          "id": 5,
          "value": -1.0
        },
        {
          "id": 6,
          "value": 0.0
        },
        {
          "id": 7,
          "value": 1.0
        },
        {
          "id": 8,
          "value": 1.0
        },
        {
          "id": 9,
          "value": 1.0
        }
      ],
      "leftModuleId": 4,
      "rightModuleId": 8,
      "pos": [
        45,
        0
      ]
    },
    {
      "id": 83,
      "plugin": "Fundamental",
      "version": "1.0.1",
      "model": "Scope",
      "params": [
        {
          "id": 0,
          "value": 0.0
        },
        {
          "id": 1,
          "value": 0.0
        },
        {
          "id": 2,
          "value": 0.0
        },
        {
          "id": 3,
          "value": 0.0
        },
        {
          "id": 4,
          "value": 14.0
        },
        {
          "id": 5,
          "value": 0.0
        },
        {
          "id": 6,
          "value": 0.0
        },
        {
          "id": 7,
          "value": 0.0
        }
      ],
      "leftModuleId": 0,
      "data": {
        "lissajous": 0,
        "external": 0
      },
      "pos": [
        86,
        0
      ]
    }
  ],
  "cables": [
    {
      "id": 147,
      "outputModuleId": 3,
      "outputId": 0,
      "inputModuleId": 0,
      "inputId": 0,
      "color": "#0c8e15"
    },
    {
      "id": 148,
      "outputModuleId": 3,
      "outputId": 1,
      "inputModuleId": 0,
      "inputId": 1,
      "color": "#0986ad"
    },
    {
      "id": 149,
      "outputModuleId": 2,
      "outputId": 0,
      "inputModuleId": 6,
      "inputId": 1,
      "color": "#0986ad"
    },
    {
      "id": 150,
      "outputModuleId": 5,
      "outputId": 0,
      "inputModuleId": 6,
      "inputId": 0,
      "color": "#0c8e15"
    },
    {
      "id": 151,
      "outputModuleId": 6,
      "outputId": 0,
      "inputModuleId": 4,
      "inputId": 0,
      "color": "#0c8e15"
    },
    {
      "id": 152,
      "outputModuleId": 1,
      "outputId": 0,
      "inputModuleId": 4,
      "inputId": 1,
      "color": "#c9b70e"
    },
    {
      "id": 153,
      "outputModuleId": 1,
      "outputId": 1,
      "inputModuleId": 4,
      "inputId": 2,
      "color": "#c91847"
    },
    {
      "id": 154,
      "outputModuleId": 1,
      "outputId": 3,
      "inputModuleId": 5,
      "inputId": 3,
      "color": "#c9b70e"
    },
    {
      "id": 155,
      "outputModuleId": 7,
      "outputId": 0,
      "inputModuleId": 2,
      "inputId": 1,
      "color": "#0986ad"
    },
    {
      "id": 156,
      "outputModuleId": 7,
      "outputId": 1,
      "inputModuleId": 5,
      "inputId": 4,
      "color": "#0c8e15"
    },
    {
      "id": 157,
      "outputModuleId": 7,
      "outputId": 6,
      "inputModuleId": 5,
      "inputId": 5,
      "color": "#0986ad"
    },
    {
      "id": 158,
      "outputModuleId": 8,
      "outputId": 0,
      "inputModuleId": 3,
      "inputId": 0,
      "color": "#0c8e15"
    },
    {
      "id": 159,
      "outputModuleId": 8,
      "outputId": 1,
      "inputModuleId": 3,
      "inputId": 1,
      "color": "#0986ad"
    },
    {
      "id": 161,
      "outputModuleId": 1,
      "outputId": 2,
      "inputModuleId": 5,
      "inputId": 0,
      "color": "#0c8e15"
    },
    {
      "id": 162,
      "outputModuleId": 4,
      "outputId": 0,
      "inputModuleId": 82,
      "inputId": 0,
      "color": "#c91847"
    },
    {
      "id": 163,
      "outputModuleId": 4,
      "outputId": 0,
      "inputModuleId": 82,
      "inputId": 4,
      "color": "#0986ad"
    },
    {
      "id": 164,
      "outputModuleId": 82,
      "outputId": 1,
      "inputModuleId": 8,
      "inputId": 0,
      "color": "#c9b70e"
    },
    {
      "id": 165,
      "outputModuleId": 82,
      "outputId": 2,
      "inputModuleId": 8,
      "inputId": 1,
      "color": "#0c8e15"
    },
    {
      "id": 166,
      "outputModuleId": 3,
      "outputId": 0,
      "inputModuleId": 83,
      "inputId": 0,
      "color": "#c91847"
    },
    {
      "id": 167,
      "outputModuleId": 3,
      "outputId": 1,
      "inputModuleId": 83,
      "inputId": 1,
      "color": "#0986ad"
    }
  ]
}