{
  "version": "1.1.0",
  "modules": [
    {
      "id": 0,
      "plugin": "Core",
      "version": "1.0.0",
      "model": "AudioInterface",
      "params": [],
      "leftModuleId": 1,
      "rightModuleId": 19,
      "data": {
        "audio": {
          "driver": 4,
          "deviceName": "system",
          "offset": 0,
          "maxChannels": 8,
          "sampleRate": 44100,
          "blockSize": 256
        }
      },
      "pos": [
        66,
        0
      ]
    },
    {
      "id": 1,
      "plugin": "cf",
      "version": "1.1.0",
      "model": "MASTER",
      "params": [
        {
          "id": 0,
          "value": 2.93000007
        },
        {
          "id": 1,
          "value": 0.0
        }
      ],
      "leftModuleId": 2,
      "rightModuleId": 0,
      "data": {
        "onstate": 1
      },
      "pos": [
        60,
        0
      ]
    },
    {
      "id": 2,
      "plugin": "Valley",
      "version": "1.0.1",
      "model": "Plateau",
      "params": [
        {
          "id": 0,
          "value": 1.0
        },
        {
          "id": 1,
          "value": 0.342499942
        },
        {
          "id": 2,
          "value": 0.0
        },
        {
          "id": 3,
          "value": 8.13999939
        },
        {
          "id": 4,
          "value": 10.0
        },
        {
          "id": 5,
          "value": 0.5
        },
        {
          "id": 6,
          "value": 10.0
        },
        {
          "id": 7,
          "value": 0.375819325
        },
        {
          "id": 8,
          "value": 10.0
        },
        {
          "id": 9,
          "value": 10.0
        },
        {
          "id": 10,
          "value": 0.0
        },
        {
          "id": 11,
          "value": 0.5
        },
        {
          "id": 12,
          "value": 0.5
        },
        {
          "id": 13,
          "value": 0.0
        },
        {
          "id": 14,
          "value": 0.0
        },
        {
          "id": 15,
          "value": 0.0
        },
        {
          "id": 16,
          "value": 0.0
        },
        {
          "id": 17,
          "value": 0.0
        },
        {
          "id": 18,
          "value": 0.0
        },
        {
          "id": 19,
          "value": 0.0
        },
        {
          "id": 20,
          "value": 0.0
        },
        {
          "id": 21,
          "value": 0.0
        },
        {
          "id": 22,
          "value": 0.0
        },
        {
          "id": 23,
          "value": 0.0
        },
        {
          "id": 24,
          "value": 0.0
        },
        {
          "id": 25,
          "value": 0.0
        },
        {
          "id": 26,
          "value": 0.0
        },
        {
          "id": 27,
          "value": 0.0
        },
        {
          "id": 28,
          "value": 0.0
        },
        {
          "id": 29,
          "value": 0.0
        },
        {
          "id": 30,
          "value": 0.0
        }
      ],
      "leftModuleId": 3,
      "rightModuleId": 1,
      "data": {
        "frozen": false,
        "freezeToggle": false,
        "panelStyle": 0,
        "tuned": 0,
        "diffuseInput": 0,
        "preDelayCVSens": 0,
        "inputSensitivity": 0,
        "outputSaturation": 0
      },
      "pos": [
        48,
        0
      ]
    },
    {
      "id": 3,
      "plugin": "cf",
      "version": "1.1.0",
      "model": "MASTER",
      "params": [
        {
          "id": 0,
          "value": 2.38999939
        },
        {
          "id": 1,
          "value": 0.0
        }
      ],
      "leftModuleId": 4,
      "rightModuleId": 2,
      "data": {
        "onstate": 1
      },
      "pos": [
        42,
        0
      ]
    },
    {
      "id": 4,
      "plugin": "cf",
      "version": "1.1.0",
      "model": "STEREO",
      "params": [
        {
          "id": 0,
          "value": 0.0
        },
        {
          "id": 1,
          "value": 5.0
        },
        {
          "id": 2,
          "value": 0.0
        },
        {
          "id": 3,
          "value": 0.0
        }
      ],
      "leftModuleId": 5,
      "rightModuleId": 3,
      "data": {
        "solostate": 0,
        "onstate": 1
      },
      "pos": [
        36,
        0
      ]
    },
    {
      "id": 5,
      "plugin": "cf",
      "version": "1.1.0",
      "model": "MONO",
      "params": [
        {
          "id": 0,
          "value": 0.0
        },
        {
          "id": 1,
          "value": 5.0
        },
        {
          "id": 2,
          "value": 0.0
        },
        {
          "id": 3,
          "value": 0.0
        }
      ],
      "leftModuleId": 6,
      "rightModuleId": 4,
      "data": {
        "solostate": 0,
        "onstate": 1
      },
      "pos": [
        30,
        0
      ]
    },
    {
      "id": 6,
      "plugin": "cf",
      "version": "1.1.0",
      "model": "MONO",
      "params": [
        {
          "id": 0,
          "value": 0.0
        },
        {
          "id": 1,
          "value": 5.0
        },
        {
          "id": 2,
          "value": 0.0
        },
        {
          "id": 3,
          "value": 0.0
        }
      ],
      "leftModuleId": 7,
      "rightModuleId": 5,
      "data": {
        "solostate": 0,
        "onstate": 1
      },
      "pos": [
        24,
        0
      ]
    },
    {
      "id": 7,
      "plugin": "cf",
      "version": "1.1.0",
      "model": "MONO",
      "params": [
        {
          "id": 0,
          "value": 0.0
        },
        {
          "id": 1,
          "value": 2.40500093
        },
        {
          "id": 2,
          "value": 0.0
        },
        {
          "id": 3,
          "value": 0.0
        }
      ],
      "leftModuleId": 24,
      "rightModuleId": 6,
      "data": {
        "solostate": 0,
        "onstate": 1
      },
      "pos": [
        18,
        0
      ]
    },
    {
      "id": 8,
      "plugin": "ML_modules",
      "version": "1.0.1",
      "model": "Quantum",
      "params": [
        {
          "id": 0,
          "value": 0.0
        },
        {
          "id": 1,
          "value": 0.0
        },
        {
          "id": 2,
          "value": 0.0
        },
        {
          "id": 3,
          "value": 0.0
        },
        {
          "id": 4,
          "value": 0.0
        },
        {
          "id": 5,
          "value": 0.0
        },
        {
          "id": 6,
          "value": 0.0
        },
        {
          "id": 7,
          "value": 0.0
        },
        {
          "id": 8,
          "value": 0.0
        },
        {
          "id": 9,
          "value": 0.0
        },
        {
          "id": 10,
          "value": 0.0
        },
        {
          "id": 11,
          "value": 0.0
        }
      ],
      "leftModuleId": 21,
      "rightModuleId": 10,
      "data": {
        "scale": [
          1,
          0,
          0,
          1,
          0,
          1,
          0,
          1,
          0,
          0,
          1,
          0
        ],
        "mode": 3,
        "transpose_select": 1,
        "toggle_mode": 0
      },
      "pos": [
        20,
        1
      ]
    },
    {
      "id": 9,
      "plugin": "Bogaudio",
      "version": "1.0.17",
      "model": "Bogaudio-FMOp",
      "params": [
        {
          "id": 0,
          "value": 0.0
        },
        {
          "id": 1,
          "value": 0.0
        },
        {
          "id": 2,
          "value": 0.0555000007
        },
        {
          "id": 3,
          "value": 0.316229999
        },
        {
          "id": 4,
          "value": 1.0
        },
        {
          "id": 5,
          "value": 0.316229999
        },
        {
          "id": 6,
          "value": 0.0
        },
        {
          "id": 7,
          "value": 0.602999985
        },
        {
          "id": 8,
          "value": 1.0
        },
        {
          "id": 9,
          "value": 1.0
        },
        {
          "id": 10,
          "value": 0.0
        },
        {
          "id": 11,
          "value": 0.0
        }
      ],
      "leftModuleId": 10,
      "rightModuleId": 22,
      "data": {
        "linearLevel": false
      },
      "pos": [
        31,
        1
      ]
    },
    {
      "id": 10,
      "plugin": "Bogaudio",
      "version": "1.0.17",
      "model": "Bogaudio-Mult",
      "params": [],
      "leftModuleId": 8,
      "rightModuleId": 9,
      "pos": [
        28,
        1
      ]
    },
    {
      "id": 11,
      "plugin": "ML_modules",
      "version": "1.0.1",
      "model": "Quantum",
      "params": [
        {
          "id": 0,
          "value": 0.0
        },
        {
          "id": 1,
          "value": 0.0
        },
        {
          "id": 2,
          "value": 0.0
        },
        {
          "id": 3,
          "value": 0.0
        },
        {
          "id": 4,
          "value": 0.0
        },
        {
          "id": 5,
          "value": 0.0
        },
        {
          "id": 6,
          "value": 0.0
        },
        {
          "id": 7,
          "value": 0.0
        },
        {
          "id": 8,
          "value": 0.0
        },
        {
          "id": 9,
          "value": 0.0
        },
        {
          "id": 10,
          "value": 0.0
        },
        {
          "id": 11,
          "value": 0.0
        }
      ],
      "leftModuleId": 23,
      "rightModuleId": 12,
      "data": {
        "scale": [
          1,
          0,
          0,
          1,
          0,
          1,
          0,
          1,
          0,
          0,
          1,
          0
        ],
        "mode": 3,
        "transpose_select": 1,
        "toggle_mode": 0
      },
      "pos": [
        47,
        1
      ]
    },
    {
      "id": 12,
      "plugin": "Bogaudio",
      "version": "1.0.17",
      "model": "Bogaudio-Mult",
      "params": [],
      "leftModuleId": 11,
      "rightModuleId": 13,
      "pos": [
        55,
        1
      ]
    },
    {
      "id": 13,
      "plugin": "Bogaudio",
      "version": "1.0.17",
      "model": "Bogaudio-FMOp",
      "params": [
        {
          "id": 0,
          "value": 0.0
        },
        {
          "id": 1,
          "value": 0.0
        },
        {
          "id": 2,
          "value": 0.0555000007
        },
        {
          "id": 3,
          "value": 0.316229999
        },
        {
          "id": 4,
          "value": 1.0
        },
        {
          "id": 5,
          "value": 0.316229999
        },
        {
          "id": 6,
          "value": 0.0
        },
        {
          "id": 7,
          "value": 0.56250006
        },
        {
          "id": 8,
          "value": 1.0
        },
        {
          "id": 9,
          "value": 1.0
        },
        {
          "id": 10,
          "value": 0.0
        },
        {
          "id": 11,
          "value": 0.0
        }
      ],
      "leftModuleId": 12,
      "rightModuleId": 18,
      "data": {
        "linearLevel": false
      },
      "pos": [
        58,
        1
      ]
    },
    {
      "id": 14,
      "plugin": "Bogaudio",
      "version": "1.0.17",
      "model": "Bogaudio-FMOp",
      "params": [
        {
          "id": 0,
          "value": 0.0
        },
        {
          "id": 1,
          "value": 0.0
        },
        {
          "id": 2,
          "value": 0.0555000007
        },
        {
          "id": 3,
          "value": 0.316229999
        },
        {
          "id": 4,
          "value": 1.0
        },
        {
          "id": 5,
          "value": 0.316229999
        },
        {
          "id": 6,
          "value": 0.0
        },
        {
          "id": 7,
          "value": 0.561000049
        },
        {
          "id": 8,
          "value": 1.0
        },
        {
          "id": 9,
          "value": 1.0
        },
        {
          "id": 10,
          "value": 0.0
        },
        {
          "id": 11,
          "value": 0.0
        }
      ],
      "leftModuleId": 16,
      "rightModuleId": 17,
      "data": {
        "linearLevel": false
      },
      "pos": [
        75,
        1
      ]
    },
    {
      "id": 15,
      "plugin": "Bogaudio",
      "version": "1.0.17",
      "model": "Bogaudio-FMOp",
      "params": [
        {
          "id": 0,
          "value": 0.0
        },
        {
          "id": 1,
          "value": 0.0
        },
        {
          "id": 2,
          "value": 0.0555000007
        },
        {
          "id": 3,
          "value": 0.316229999
        },
        {
          "id": 4,
          "value": 1.0
        },
        {
          "id": 5,
          "value": 0.316229999
        },
        {
          "id": 6,
          "value": 0.0
        },
        {
          "id": 7,
          "value": 0.639000058
        },
        {
          "id": 8,
          "value": 1.0
        },
        {
          "id": 9,
          "value": 1.0
        },
        {
          "id": 10,
          "value": 0.0
        },
        {
          "id": 11,
          "value": 0.0
        }
      ],
      "leftModuleId": 17,
      "rightModuleId": 20,
      "data": {
        "linearLevel": false
      },
      "pos": [
        89,
        1
      ]
    },
    {
      "id": 16,
      "plugin": "21kHz",
      "version": "1.0.0",
      "model": "kHzD_Inf",
      "params": [
        {
          "id": 0,
          "value": 0.0
        },
        {
          "id": 1,
          "value": 7.0
        },
        {
          "id": 2,
          "value": 0.0
        },
        {
          "id": 3,
          "value": 0.0
        }
      ],
      "leftModuleId": 18,
      "rightModuleId": 14,
      "pos": [
        71,
        1
      ]
    },
    {
      "id": 17,
      "plugin": "21kHz",
      "version": "1.0.0",
      "model": "kHzD_Inf",
      "params": [
        {
          "id": 0,
          "value": 0.0
        },
        {
          "id": 1,
          "value": 7.0
        },
        {
          "id": 2,
          "value": 0.0
        },
        {
          "id": 3,
          "value": 0.0
        }
      ],
      "leftModuleId": 14,
      "rightModuleId": 15,
      "pos": [
        85,
        1
      ]
    },
    {
      "id": 18,
      "plugin": "Bogaudio",
      "version": "1.0.17",
      "model": "Bogaudio-Mult",
      "params": [],
      "leftModuleId": 13,
      "rightModuleId": 16,
      "pos": [
        68,
        1
      ]
    },
    {
      "id": 19,
      "plugin": "ML_modules",
      "version": "1.0.1",
      "model": "Quantum",
      "params": [
        {
          "id": 0,
          "value": 0.0
        },
        {
          "id": 1,
          "value": 0.0
        },
        {
          "id": 2,
          "value": 0.0
        },
        {
          "id": 3,
          "value": 0.0
        },
        {
          "id": 4,
          "value": 0.0
        },
        {
          "id": 5,
          "value": 0.0
        },
        {
          "id": 6,
          "value": 0.0
        },
        {
          "id": 7,
          "value": 0.0
        },
        {
          "id": 8,
          "value": 0.0
        },
        {
          "id": 9,
          "value": 0.0
        },
        {
          "id": 10,
          "value": 0.0
        },
        {
          "id": 11,
          "value": 0.0
        }
      ],
      "leftModuleId": 0,
      "rightModuleId": 25,
      "data": {
        "scale": [
          1,
          0,
          0,
          1,
          0,
          1,
          0,
          1,
          0,
          0,
          1,
          0
        ],
        "mode": 0,
        "transpose_select": 1,
        "toggle_mode": 0
      },
      "pos": [
        76,
        0
      ]
    },
    {
      "id": 20,
      "plugin": "Bogaudio",
      "version": "1.0.17",
      "model": "Bogaudio-Mult",
      "params": [],
      "leftModuleId": 15,
      "pos": [
        99,
        1
      ]
    },
    {
      "id": 21,
      "plugin": "ImpromptuModular",
      "version": "1.1.0",
      "model": "Twelve-Key",
      "params": [
        {
          "id": 0,
          "value": 0.0
        },
        {
          "id": 1,
          "value": 0.0
        },
        {
          "id": 2,
          "value": 0.0
        },
        {
          "id": 3,
          "value": 0.0
        }
      ],
      "rightModuleId": 8,
      "data": {
        "panelTheme": 0,
        "octave": 4,
        "cv": 0.166666672,
        "vel": 1.0,
        "maxVel": 10.0,
        "stateInternal": true,
        "invertVel": false
      },
      "pos": [
        0,
        1
      ]
    },
    {
      "id": 22,
      "plugin": "Bogaudio",
      "version": "1.0.17",
      "model": "Bogaudio-SampleHold",
      "params": [
        {
          "id": 0,
          "value": 0.0
        },
        {
          "id": 1,
          "value": 0.0
        },
        {
          "id": 2,
          "value": 0.0
        },
        {
          "id": 3,
          "value": 0.0
        }
      ],
      "leftModuleId": 9,
      "rightModuleId": 23,
      "pos": [
        41,
        1
      ]
    },
    {
      "id": 23,
      "plugin": "Bogaudio",
      "version": "1.0.17",
      "model": "Bogaudio-Mult",
      "params": [],
      "leftModuleId": 22,
      "rightModuleId": 11,
      "pos": [
        44,
        1
      ]
    },
    {
      "id": 24,
      "plugin": "AudibleInstruments",
      "version": "1.0.0",
      "model": "Marbles",
      "params": [
        {
          "id": 0,
          "value": 0.0
        },
        {
          "id": 1,
          "value": 0.0
        },
        {
          "id": 2,
          "value": 0.760999978
        },
        {
          "id": 3,
          "value": 0.20100008
        },
        {
          "id": 4,
          "value": 0.5
        },
        {
          "id": 5,
          "value": 0.0
        },
        {
          "id": 6,
          "value": 0.0
        },
        {
          "id": 7,
          "value": 1.0
        },
        {
          "id": 8,
          "value": 0.5
        },
        {
          "id": 9,
          "value": 0.5
        },
        {
          "id": 10,
          "value": 0.0
        },
        {
          "id": 11,
          "value": 0.0
        },
        {
          "id": 12,
          "value": 0.0
        },
        {
          "id": 13,
          "value": 0.0
        },
        {
          "id": 14,
          "value": 0.5
        }
      ],
      "rightModuleId": 7,
      "data": {
        "t_deja_vu": true,
        "x_deja_vu": true,
        "t_mode": 0,
        "x_mode": 0,
        "t_range": 1,
        "x_range": 2,
        "external": false,
        "x_scale": 0,
        "y_divider_index": 8,
        "x_clock_source_internal": 0
      },
      "pos": [
        0,
        0
      ]
    },
    {
      "id": 25,
      "plugin": "21kHz",
      "version": "1.0.0",
      "model": "kHzPalmLoop",
      "params": [
        {
          "id": 0,
          "value": 8.0
        },
        {
          "id": 1,
          "value": 0.0
        },
        {
          "id": 2,
          "value": 0.0
        },
        {
          "id": 3,
          "value": 0.0
        },
        {
          "id": 4,
          "value": 0.0
        }
      ],
      "leftModuleId": 19,
      "rightModuleId": 26,
      "pos": [
        84,
        0
      ]
    },
    {
      "id": 26,
      "plugin": "Bidoo",
      "version": "1.0.0",
      "model": "pErCO",
      "params": [
        {
          "id": 0,
          "value": 0.497499943
        },
        {
          "id": 1,
          "value": 0.549550056
        },
        {
          "id": 2,
          "value": 0.0
        }
      ],
      "leftModuleId": 25,
      "pos": [
        92,
        0
      ]
    }
  ],
  "cables": [
    {
      "id": 47,
      "outputModuleId": 1,
      "outputId": 2,
      "inputModuleId": 0,
      "inputId": 0,
      "color": "#c91847"
    },
    {
      "id": 48,
      "outputModuleId": 1,
      "outputId": 3,
      "inputModuleId": 0,
      "inputId": 1,
      "color": "#c91847"
    },
    {
      "id": 49,
      "outputModuleId": 2,
      "outputId": 0,
      "inputModuleId": 1,
      "inputId": 2,
      "color": "#c91847"
    },
    {
      "id": 50,
      "outputModuleId": 2,
      "outputId": 1,
      "inputModuleId": 1,
      "inputId": 3,
      "color": "#c91847"
    },
    {
      "id": 51,
      "outputModuleId": 3,
      "outputId": 2,
      "inputModuleId": 2,
      "inputId": 0,
      "color": "#c91847"
    },
    {
      "id": 52,
      "outputModuleId": 3,
      "outputId": 3,
      "inputModuleId": 2,
      "inputId": 1,
      "color": "#c91847"
    },
    {
      "id": 53,
      "outputModuleId": 4,
      "outputId": 1,
      "inputModuleId": 3,
      "inputId": 2,
      "color": "#c91847"
    },
    {
      "id": 54,
      "outputModuleId": 4,
      "outputId": 2,
      "inputModuleId": 3,
      "inputId": 3,
      "color": "#c91847"
    },
    {
      "id": 55,
      "outputModuleId": 5,
      "outputId": 1,
      "inputModuleId": 4,
      "inputId": 5,
      "color": "#c91847"
    },
    {
      "id": 56,
      "outputModuleId": 5,
      "outputId": 2,
      "inputModuleId": 4,
      "inputId": 6,
      "color": "#c91847"
    },
    {
      "id": 57,
      "outputModuleId": 6,
      "outputId": 1,
      "inputModuleId": 5,
      "inputId": 5,
      "color": "#c91847"
    },
    {
      "id": 58,
      "outputModuleId": 6,
      "outputId": 2,
      "inputModuleId": 5,
      "inputId": 6,
      "color": "#c91847"
    },
    {
      "id": 59,
      "outputModuleId": 7,
      "outputId": 1,
      "inputModuleId": 6,
      "inputId": 5,
      "color": "#c91847"
    },
    {
      "id": 60,
      "outputModuleId": 7,
      "outputId": 2,
      "inputModuleId": 6,
      "inputId": 6,
      "color": "#c91847"
    },
    {
      "id": 61,
      "outputModuleId": 24,
      "outputId": 4,
      "inputModuleId": 20,
      "inputId": 0,
      "color": "#0986ad"
    },
    {
      "id": 62,
      "outputModuleId": 8,
      "outputId": 0,
      "inputModuleId": 10,
      "inputId": 0,
      "color": "#c9b70e"
    },
    {
      "id": 63,
      "outputModuleId": 10,
      "outputId": 0,
      "inputModuleId": 9,
      "inputId": 4,
      "color": "#c91847"
    },
    {
      "id": 64,
      "outputModuleId": 10,
      "outputId": 1,
      "inputModuleId": 9,
      "inputId": 0,
      "color": "#0c8e15"
    },
    {
      "id": 65,
      "outputModuleId": 10,
      "outputId": 2,
      "inputModuleId": 9,
      "inputId": 2,
      "color": "#0986ad"
    },
    {
      "id": 66,
      "outputModuleId": 8,
      "outputId": 2,
      "inputModuleId": 18,
      "inputId": 0,
      "color": "#c9b70e"
    },
    {
      "id": 67,
      "outputModuleId": 9,
      "outputId": 0,
      "inputModuleId": 5,
      "inputId": 8,
      "color": "#c91847"
    },
    {
      "id": 68,
      "outputModuleId": 24,
      "outputId": 5,
      "inputModuleId": 11,
      "inputId": 0,
      "color": "#0986ad"
    },
    {
      "id": 69,
      "outputModuleId": 11,
      "outputId": 0,
      "inputModuleId": 12,
      "inputId": 0,
      "color": "#c9b70e"
    },
    {
      "id": 70,
      "outputModuleId": 12,
      "outputId": 0,
      "inputModuleId": 13,
      "inputId": 4,
      "color": "#c91847"
    },
    {
      "id": 71,
      "outputModuleId": 12,
      "outputId": 1,
      "inputModuleId": 13,
      "inputId": 0,
      "color": "#0c8e15"
    },
    {
      "id": 72,
      "outputModuleId": 12,
      "outputId": 2,
      "inputModuleId": 13,
      "inputId": 2,
      "color": "#0986ad"
    },
    {
      "id": 73,
      "outputModuleId": 11,
      "outputId": 2,
      "inputModuleId": 13,
      "inputId": 5,
      "color": "#c9b70e"
    },
    {
      "id": 74,
      "outputModuleId": 13,
      "outputId": 0,
      "inputModuleId": 6,
      "inputId": 8,
      "color": "#c91847"
    },
    {
      "id": 75,
      "outputModuleId": 10,
      "outputId": 3,
      "inputModuleId": 16,
      "inputId": 2,
      "color": "#0c8e15"
    },
    {
      "id": 76,
      "outputModuleId": 10,
      "outputId": 4,
      "inputModuleId": 14,
      "inputId": 0,
      "color": "#0986ad"
    },
    {
      "id": 77,
      "outputModuleId": 10,
      "outputId": 5,
      "inputModuleId": 14,
      "inputId": 2,
      "color": "#c9b70e"
    },
    {
      "id": 78,
      "outputModuleId": 16,
      "outputId": 0,
      "inputModuleId": 14,
      "inputId": 4,
      "color": "#c91847"
    },
    {
      "id": 79,
      "outputModuleId": 18,
      "outputId": 0,
      "inputModuleId": 9,
      "inputId": 5,
      "color": "#0c8e15"
    },
    {
      "id": 80,
      "outputModuleId": 18,
      "outputId": 1,
      "inputModuleId": 14,
      "inputId": 5,
      "color": "#0986ad"
    },
    {
      "id": 81,
      "outputModuleId": 18,
      "outputId": 2,
      "inputModuleId": 15,
      "inputId": 5,
      "color": "#c9b70e"
    },
    {
      "id": 82,
      "outputModuleId": 12,
      "outputId": 3,
      "inputModuleId": 17,
      "inputId": 2,
      "color": "#c91847"
    },
    {
      "id": 83,
      "outputModuleId": 17,
      "outputId": 0,
      "inputModuleId": 15,
      "inputId": 4,
      "color": "#0c8e15"
    },
    {
      "id": 84,
      "outputModuleId": 12,
      "outputId": 4,
      "inputModuleId": 15,
      "inputId": 0,
      "color": "#0986ad"
    },
    {
      "id": 85,
      "outputModuleId": 12,
      "outputId": 5,
      "inputModuleId": 15,
      "inputId": 2,
      "color": "#c9b70e"
    },
    {
      "id": 86,
      "outputModuleId": 14,
      "outputId": 0,
      "inputModuleId": 4,
      "inputId": 8,
      "color": "#c91847"
    },
    {
      "id": 87,
      "outputModuleId": 15,
      "outputId": 0,
      "inputModuleId": 4,
      "inputId": 9,
      "color": "#0c8e15"
    },
    {
      "id": 88,
      "outputModuleId": 25,
      "outputId": 0,
      "inputModuleId": 26,
      "inputId": 0,
      "color": "#0986ad"
    },
    {
      "id": 89,
      "outputModuleId": 20,
      "outputId": 0,
      "inputModuleId": 8,
      "inputId": 0,
      "color": "#c9b70e"
    },
    {
      "id": 90,
      "outputModuleId": 20,
      "outputId": 1,
      "inputModuleId": 19,
      "inputId": 0,
      "color": "#c91847"
    },
    {
      "id": 91,
      "outputModuleId": 19,
      "outputId": 0,
      "inputModuleId": 25,
      "inputId": 1,
      "color": "#0c8e15"
    },
    {
      "id": 92,
      "outputModuleId": 21,
      "outputId": 1,
      "inputModuleId": 22,
      "inputId": 3,
      "color": "#0986ad"
    },
    {
      "id": 93,
      "outputModuleId": 24,
      "outputId": 1,
      "inputModuleId": 22,
      "inputId": 2,
      "color": "#c9b70e"
    },
    {
      "id": 94,
      "outputModuleId": 22,
      "outputId": 1,
      "inputModuleId": 23,
      "inputId": 0,
      "color": "#c91847"
    },
    {
      "id": 95,
      "outputModuleId": 23,
      "outputId": 0,
      "inputModuleId": 8,
      "inputId": 1,
      "color": "#0c8e15"
    },
    {
      "id": 96,
      "outputModuleId": 23,
      "outputId": 1,
      "inputModuleId": 11,
      "inputId": 1,
      "color": "#0986ad"
    },
    {
      "id": 97,
      "outputModuleId": 23,
      "outputId": 2,
      "inputModuleId": 19,
      "inputId": 1,
      "color": "#c9b70e"
    },
    {
      "id": 98,
      "outputModuleId": 26,
      "outputId": 0,
      "inputModuleId": 7,
      "inputId": 8,
      "color": "#c9b70e"
    }
  ]
}