{
  "version": "1.1.6",
  "modules": [
    {
      "id": 139,
      "plugin": "Core",
      "version": "1.1.6",
      "model": "AudioInterface",
      "params": [],
      "leftModuleId": 264,
      "rightModuleId": 154,
      "data": {
        "audio": {
          "driver": 4,
          "deviceName": "system",
          "offset": 0,
          "maxChannels": 8,
          "sampleRate": 44100,
          "blockSize": 1024
        }
      },
      "pos": [
        62,
        0
      ]
    },
    {
      "id": 153,
      "plugin": "LindenbergResearch",
      "version": "1.3.3",
      "model": "BlankPanel_Wood",
      "params": [],
      "rightModuleId": 162,
      "gestaltID": 1,
      "gradient": false,
      "patina": false,
      "patina_i_x": false,
      "patina_i_y": true,
      "patina_a_x": 1020.95642,
      "patina_a_y": 119.103981,
      "overlay": false,
      "overlay_r": 0.117232203,
      "overlay_g": 0.341231227,
      "overlay_b": 0.343879044,
      "overlay_a": 0.371551424,
      "AGED": true,
      "screws": true,
      "logo": false,
      "pos": [
        0,
        0
      ]
    },
    {
      "id": 154,
      "plugin": "LindenbergResearch",
      "version": "1.3.3",
      "model": "BlankPanel_Wood",
      "params": [],
      "leftModuleId": 139,
      "gestaltID": 1,
      "gradient": false,
      "patina": false,
      "patina_i_x": false,
      "patina_i_y": true,
      "patina_a_x": 1020.95642,
      "patina_a_y": 119.103981,
      "overlay": false,
      "overlay_r": 0.00421494246,
      "overlay_g": 0.585803092,
      "overlay_b": 0.665826023,
      "overlay_a": 0.284111947,
      "AGED": true,
      "screws": true,
      "logo": false,
      "pos": [
        72,
        0
      ]
    },
    {
      "id": 162,
      "plugin": "AS",
      "version": "1.0.4",
      "model": "TriLFO",
      "params": [
        {
          "id": 0,
          "value": 1.0
        },
        {
          "id": 1,
          "value": 1.0
        },
        {
          "id": 2,
          "value": -4.59099579
        },
        {
          "id": 3,
          "value": 1.0
        },
        {
          "id": 4,
          "value": 1.0
        },
        {
          "id": 5,
          "value": -2.86299729
        },
        {
          "id": 6,
          "value": 1.0
        },
        {
          "id": 7,
          "value": 1.0
        },
        {
          "id": 8,
          "value": -2.86299825
        },
        {
          "id": 9,
          "value": 0.0
        },
        {
          "id": 10,
          "value": 0.0
        },
        {
          "id": 11,
          "value": 0.0
        },
        {
          "id": 12,
          "value": 0.0
        }
      ],
      "leftModuleId": 153,
      "rightModuleId": 177,
      "pos": [
        4,
        0
      ]
    },
    {
      "id": 176,
      "plugin": "AudibleInstruments",
      "version": "1.0.2",
      "model": "Plaits",
      "params": [
        {
          "id": 0,
          "value": 0.0
        },
        {
          "id": 1,
          "value": 0.0
        },
        {
          "id": 2,
          "value": 0.0
        },
        {
          "id": 3,
          "value": 0.0
        },
        {
          "id": 4,
          "value": 0.245999828
        },
        {
          "id": 5,
          "value": 0.262500077
        },
        {
          "id": 6,
          "value": 0.621000051
        },
        {
          "id": 7,
          "value": 0.0
        },
        {
          "id": 8,
          "value": 0.522000194
        }
      ],
      "leftModuleId": 177,
      "rightModuleId": 261,
      "data": {
        "lowCpu": false,
        "model": 3,
        "lpgColor": 0.5,
        "decay": 0.5
      },
      "pos": [
        22,
        0
      ]
    },
    {
      "id": 177,
      "plugin": "HolonicSystems-Free",
      "version": "1.0.3",
      "model": "HolonicSystems-LazySusanQuantiser",
      "params": [
        {
          "id": 0,
          "value": 0.0
        },
        {
          "id": 1,
          "value": 0.263999641
        },
        {
          "id": 2,
          "value": 0.243999869
        },
        {
          "id": 3,
          "value": 0.0
        },
        {
          "id": 4,
          "value": 0.0
        },
        {
          "id": 5,
          "value": 0.0
        },
        {
          "id": 6,
          "value": 0.0
        },
        {
          "id": 7,
          "value": 0.0
        },
        {
          "id": 8,
          "value": 0.0
        },
        {
          "id": 9,
          "value": 0.0
        },
        {
          "id": 10,
          "value": 0.0
        },
        {
          "id": 11,
          "value": 0.0
        },
        {
          "id": 12,
          "value": 0.0
        },
        {
          "id": 13,
          "value": 0.0
        },
        {
          "id": 14,
          "value": 0.0
        }
      ],
      "leftModuleId": 162,
      "rightModuleId": 176,
      "data": {
        "scales": [
          true,
          false,
          false,
          true,
          false,
          false,
          false,
          true,
          false,
          false,
          true,
          false,
          true,
          false,
          false,
          false,
          false,
          true,
          false,
          false,
          true,
          false,
          false,
          false,
          false,
          false,
          true,
          false,
          false,
          false,
          false,
          true,
          false,
          false,
          true,
          false,
          true,
          false,
          true,
          false,
          true,
          false,
          true,
          true,
          false,
          true,
          false,
          true,
          true,
          false,
          true,
          false,
          true,
          true,
          false,
          true,
          false,
          true,
          true,
          false,
          true,
          false,
          true,
          true,
          false,
          true,
          false,
          true,
          true,
          false,
          true,
          false,
          true,
          true,
          false,
          true,
          false,
          true,
          true,
          false,
          true,
          false,
          true,
          false
        ]
      },
      "pos": [
        14,
        0
      ]
    },
    {
      "id": 261,
      "plugin": "AS",
      "version": "1.0.4",
      "model": "DelayPlusStereoFx",
      "params": [
        {
          "id": 0,
          "value": 0.375
        },
        {
          "id": 1,
          "value": 0.660000026
        },
        {
          "id": 2,
          "value": 0.660000026
        },
        {
          "id": 3,
          "value": 0.75
        },
        {
          "id": 4,
          "value": 0.660000026
        },
        {
          "id": 5,
          "value": 0.660000026
        },
        {
          "id": 6,
          "value": 0.0
        },
        {
          "id": 7,
          "value": 0.0
        },
        {
          "id": 8,
          "value": 0.5
        },
        {
          "id": 9,
          "value": 0.0
        }
      ],
      "leftModuleId": 176,
      "rightModuleId": 264,
      "data": {
        "as_FxBypass": [
          false
        ]
      },
      "pos": [
        34,
        0
      ]
    },
    {
      "id": 264,
      "plugin": "Core",
      "version": "1.1.6",
      "model": "Notes",
      "params": [],
      "leftModuleId": 261,
      "rightModuleId": 139,
      "text": "red - audio\nblue - clk/trg/gate\nyellow - v/oct\ngreen - modulation",
      "pos": [
        46,
        0
      ]
    }
  ],
  "cables": [
    {
      "id": 194,
      "outputModuleId": 177,
      "outputId": 4,
      "inputModuleId": 176,
      "inputId": 5,
      "color": "#0986ad"
    },
    {
      "id": 195,
      "outputModuleId": 177,
      "outputId": 0,
      "inputModuleId": 176,
      "inputId": 7,
      "color": "#c9b70e"
    },
    {
      "id": 196,
      "outputModuleId": 162,
      "outputId": 0,
      "inputModuleId": 177,
      "inputId": 0,
      "color": "#0c8e15"
    },
    {
      "id": 198,
      "outputModuleId": 162,
      "outputId": 4,
      "inputModuleId": 176,
      "inputId": 3,
      "color": "#0c8e15"
    },
    {
      "id": 201,
      "outputModuleId": 162,
      "outputId": 8,
      "inputModuleId": 176,
      "inputId": 1,
      "color": "#0c8e15"
    },
    {
      "id": 209,
      "outputModuleId": 162,
      "outputId": 8,
      "inputModuleId": 177,
      "inputId": 8,
      "color": "#0c8e15"
    },
    {
      "id": 191,
      "outputModuleId": 176,
      "outputId": 0,
      "inputModuleId": 261,
      "inputId": 9,
      "color": "#c91847"
    },
    {
      "id": 193,
      "outputModuleId": 176,
      "outputId": 0,
      "inputModuleId": 261,
      "inputId": 10,
      "color": "#c91847"
    },
    {
      "id": 188,
      "outputModuleId": 261,
      "outputId": 3,
      "inputModuleId": 139,
      "inputId": 0,
      "color": "#c91847"
    },
    {
      "id": 189,
      "outputModuleId": 261,
      "outputId": 2,
      "inputModuleId": 139,
      "inputId": 1,
      "color": "#c91847"
    }
  ]
}