{
  "version": "1.dev.6d75538",
  "modules": [
    {
      "plugin": "Core",
      "version": "1.dev.6d75538",
      "model": "AudioInterface",
      "params": [],
      "data": {
        "audio": {
          "driver": 4,
          "deviceName": "system",
          "offset": 0,
          "maxChannels": 8,
          "sampleRate": 32000,
          "blockSize": 512
        }
      },
      "leftModuleId": 2,
      "rightModuleId": 8,
      "id": 1,
      "pos": [
        57,
        0
      ]
    },
    {
      "plugin": "Fundamental",
      "version": "1.0.0",
      "model": "VCMixer",
      "params": [
        {
          "value": 1.0
        },
        {
          "value": 1.0
        },
        {
          "value": 1.0
        },
        {
          "value": 1.0
        },
        {
          "value": 1.0
        }
      ],
      "leftModuleId": 7,
      "rightModuleId": 1,
      "id": 2,
      "pos": [
        47,
        0
      ]
    },
    {
      "plugin": "Fundamental",
      "version": "1.0.0",
      "model": "VCO",
      "params": [
        {
          "value": 1.0
        },
        {
          "value": 1.0
        },
        {
          "value": 0.0
        },
        {
          "value": 0.0
        },
        {
          "value": 0.0
        },
        {
          "value": 0.5
        },
        {
          "value": 0.0
        }
      ],
      "leftModuleId": 5,
      "rightModuleId": 4,
      "id": 3,
      "pos": [
        8,
        0
      ]
    },
    {
      "plugin": "Fundamental",
      "version": "1.0.0",
      "model": "VCF",
      "params": [
        {
          "value": 0.0599999949
        },
        {
          "value": 0.5
        },
        {
          "value": 0.236999944
        },
        {
          "value": 1.0
        },
        {
          "value": 0.0
        }
      ],
      "leftModuleId": 3,
      "rightModuleId": 6,
      "id": 4,
      "pos": [
        18,
        0
      ]
    },
    {
      "plugin": "Core",
      "version": "1.dev.6d75538",
      "model": "MIDIToCVInterface",
      "params": [],
      "data": {
        "channels": 1,
        "polyMode": 0,
        "clockDivision": 24,
        "lastPitch": 8192,
        "lastMod": 0,
        "midi": {
          "driver": 2,
          "deviceName": "Midi Through:Midi Through Port-0 14:0",
          "channel": -1
        }
      },
      "leftModuleId": -1,
      "rightModuleId": 3,
      "id": 5,
      "pos": [
        0,
        0
      ]
    },
    {
      "plugin": "Fundamental",
      "version": "1.0.0",
      "model": "ADSR",
      "params": [
        {
          "value": 0.25
        },
        {
          "value": 0.671000004
        },
        {
          "value": 0.358999938
        },
        {
          "value": 0.5
        }
      ],
      "leftModuleId": 4,
      "rightModuleId": 7,
      "id": 6,
      "pos": [
        26,
        0
      ]
    },
    {
      "plugin": "Fundamental",
      "version": "1.0.0",
      "model": "Scope",
      "params": [
        {
          "value": 0.0
        },
        {
          "value": 0.0
        },
        {
          "value": 0.0
        },
        {
          "value": 0.0
        },
        {
          "value": 14.0
        },
        {
          "value": 0.0
        },
        {
          "value": 0.0
        },
        {
          "value": 0.0
        }
      ],
      "data": {
        "lissajous": 0,
        "external": 0
      },
      "leftModuleId": 6,
      "rightModuleId": 2,
      "id": 7,
      "pos": [
        34,
        0
      ]
    },
    {
      "plugin": "Core",
      "version": "1.dev.6d75538",
      "model": "Notes",
      "params": [],
      "leftModuleId": 1,
      "rightModuleId": -1,
      "text": "Demo patch instructions:\n\n1. Choose an audio driver and device in the AUDIO module. \n\n2. Use the QWERTY and ZXCVB rows of your keyboard to generate MIDI notes and convert them to 1V/oct and GATE signals.\n\n3. Drag knobs up/down. Hold CTRL (CMD on Mac) while dragging to fine-tune. Right-click knobs to edit or reset their value. \n\n4. Drag cables to patch them between inputs and outputs. Stack multiple cables on outputs by holding CTRL (CMD on Mac) and dragging from an output.  \n",
      "id": 8,
      "pos": [
        67,
        0
      ]
    }
  ],
  "id": 10,
  "cables": [
    {
      "outputModuleId": 5,
      "outputId": 0,
      "inputModuleId": 3,
      "inputId": 0,
      "color": "#c91847"
    },
    {
      "outputModuleId": 3,
      "outputId": 2,
      "inputModuleId": 4,
      "inputId": 3,
      "color": "#0c8e15"
    },
    {
      "outputModuleId": 2,
      "outputId": 0,
      "inputModuleId": 1,
      "inputId": 0,
      "color": "#0986ad"
    },
    {
      "outputModuleId": 2,
      "outputId": 0,
      "inputModuleId": 1,
      "inputId": 1,
      "color": "#c9b70e"
    },
    {
      "outputModuleId": 6,
      "outputId": 0,
      "inputModuleId": 4,
      "inputId": 0,
      "color": "#c91847"
    },
    {
      "outputModuleId": 5,
      "outputId": 1,
      "inputModuleId": 6,
      "inputId": 4,
      "color": "#c9b70e"
    },
    {
      "outputModuleId": 6,
      "outputId": 0,
      "inputModuleId": 2,
      "inputId": 5,
      "color": "#0c8e15"
    },
    {
      "outputModuleId": 4,
      "outputId": 0,
      "inputModuleId": 2,
      "inputId": 1,
      "color": "#0986ad"
    },
    {
      "outputModuleId": 2,
      "outputId": 1,
      "inputModuleId": 7,
      "inputId": 0,
      "color": "#c9b70e"
    },
    {
      "outputModuleId": 5,
      "outputId": 6,
      "inputModuleId": 6,
      "inputId": 5,
      "color": "#c91847"
    }
  ]
}