{
  "version": "0.6.2c",
  "modules": [
    {
      "plugin": "Core",
      "version": "0.6.2c",
      "model": "AudioInterface",
      "params": [],
      "data": {
        "audio": {
          "driver": 4,
          "deviceName": "system",
          "offset": 0,
          "maxChannels": 8,
          "sampleRate": 32000,
          "blockSize": 512
        }
      },
      "pos": [
        66,
        0
      ]
    },
    {
      "plugin": "cf",
      "version": "0.6.8",
      "model": "MASTER",
      "params": [
        {
          "paramId": 0,
          "value": 2.93000007
        },
        {
          "paramId": 1,
          "value": 0.0
        }
      ],
      "data": {
        "onstate": 1
      },
      "pos": [
        60,
        0
      ]
    },
    {
      "plugin": "Valley",
      "version": "0.6.16",
      "model": "Plateau",
      "params": [
        {
          "paramId": 0,
          "value": 1.0
        },
        {
          "paramId": 1,
          "value": 0.342499942
        },
        {
          "paramId": 2,
          "value": 0.0
        },
        {
          "paramId": 3,
          "value": 8.13999939
        },
        {
          "paramId": 4,
          "value": 10.0
        },
        {
          "paramId": 5,
          "value": 0.5
        },
        {
          "paramId": 6,
          "value": 10.0
        },
        {
          "paramId": 7,
          "value": 0.375819325
        },
        {
          "paramId": 9,
          "value": 10.0
        },
        {
          "paramId": 8,
          "value": 10.0
        },
        {
          "paramId": 10,
          "value": 0.0
        },
        {
          "paramId": 12,
          "value": 0.5
        },
        {
          "paramId": 11,
          "value": 0.5
        },
        {
          "paramId": 17,
          "value": 0.0
        },
        {
          "paramId": 18,
          "value": 0.0
        },
        {
          "paramId": 19,
          "value": 0.0
        },
        {
          "paramId": 20,
          "value": 0.0
        },
        {
          "paramId": 21,
          "value": 0.0
        },
        {
          "paramId": 22,
          "value": 0.0
        },
        {
          "paramId": 23,
          "value": 0.0
        },
        {
          "paramId": 25,
          "value": 0.0
        },
        {
          "paramId": 24,
          "value": 0.0
        },
        {
          "paramId": 26,
          "value": 0.0
        },
        {
          "paramId": 27,
          "value": 0.0
        },
        {
          "paramId": 28,
          "value": 0.0
        },
        {
          "paramId": 13,
          "value": 0.0
        },
        {
          "paramId": 15,
          "value": 0.0
        },
        {
          "paramId": 14,
          "value": 0.0
        },
        {
          "paramId": 29,
          "value": 0.0
        },
        {
          "paramId": 30,
          "value": 0.0
        }
      ],
      "data": {
        "frozen": false,
        "freezeToggle": false,
        "panelStyle": 0,
        "tuned": 0,
        "diffuseInput": 1,
        "preDelayCVSens": 0,
        "inputSensitivity": 0,
        "outputSaturation": 0
      },
      "pos": [
        48,
        0
      ]
    },
    {
      "plugin": "cf",
      "version": "0.6.8",
      "model": "MASTER",
      "params": [
        {
          "paramId": 0,
          "value": 2.38999939
        },
        {
          "paramId": 1,
          "value": 0.0
        }
      ],
      "data": {
        "onstate": 1
      },
      "pos": [
        42,
        0
      ]
    },
    {
      "plugin": "cf",
      "version": "0.6.8",
      "model": "STEREO",
      "params": [
        {
          "paramId": 0,
          "value": 0.0
        },
        {
          "paramId": 1,
          "value": 5.0
        },
        {
          "paramId": 2,
          "value": 0.0
        },
        {
          "paramId": 3,
          "value": 0.0
        }
      ],
      "data": {
        "solostate": 0,
        "onstate": 1
      },
      "pos": [
        36,
        0
      ]
    },
    {
      "plugin": "cf",
      "version": "0.6.8",
      "model": "MONO",
      "params": [
        {
          "paramId": 0,
          "value": 0.0
        },
        {
          "paramId": 1,
          "value": 5.0
        },
        {
          "paramId": 2,
          "value": 0.0
        },
        {
          "paramId": 3,
          "value": 0.0
        }
      ],
      "data": {
        "solostate": 0,
        "onstate": 1
      },
      "pos": [
        30,
        0
      ]
    },
    {
      "plugin": "cf",
      "version": "0.6.8",
      "model": "MONO",
      "params": [
        {
          "paramId": 0,
          "value": 0.0
        },
        {
          "paramId": 1,
          "value": 5.0
        },
        {
          "paramId": 2,
          "value": 0.0
        },
        {
          "paramId": 3,
          "value": 0.0
        }
      ],
      "data": {
        "solostate": 0,
        "onstate": 1
      },
      "pos": [
        24,
        0
      ]
    },
    {
      "plugin": "cf",
      "version": "0.6.8",
      "model": "MONO",
      "params": [
        {
          "paramId": 0,
          "value": 0.0
        },
        {
          "paramId": 1,
          "value": 2.40500093
        },
        {
          "paramId": 2,
          "value": 0.0
        },
        {
          "paramId": 3,
          "value": 0.0
        }
      ],
      "data": {
        "solostate": 0,
        "onstate": 1
      },
      "pos": [
        18,
        0
      ]
    },
    {
      "plugin": "ML_modules",
      "version": "0.6.3",
      "model": "Quantum",
      "params": [
        {
          "paramId": 0,
          "value": 0.0
        },
        {
          "paramId": 1,
          "value": 0.0
        },
        {
          "paramId": 2,
          "value": 0.0
        },
        {
          "paramId": 3,
          "value": 0.0
        },
        {
          "paramId": 4,
          "value": 0.0
        },
        {
          "paramId": 5,
          "value": 0.0
        },
        {
          "paramId": 6,
          "value": 0.0
        },
        {
          "paramId": 7,
          "value": 0.0
        },
        {
          "paramId": 8,
          "value": 0.0
        },
        {
          "paramId": 9,
          "value": 0.0
        },
        {
          "paramId": 10,
          "value": 0.0
        },
        {
          "paramId": 11,
          "value": 0.0
        }
      ],
      "data": {
        "scale": [
          1,
          0,
          0,
          1,
          0,
          1,
          0,
          1,
          0,
          0,
          1,
          0
        ],
        "mode": 3
      },
      "pos": [
        20,
        1
      ]
    },
    {
      "plugin": "Bogaudio",
      "version": "0.6.13",
      "model": "Bogaudio-FMOp",
      "params": [
        {
          "paramId": 0,
          "value": 0.0
        },
        {
          "paramId": 1,
          "value": 0.0
        },
        {
          "paramId": 2,
          "value": 0.0555000007
        },
        {
          "paramId": 3,
          "value": 0.316229999
        },
        {
          "paramId": 4,
          "value": 1.0
        },
        {
          "paramId": 5,
          "value": 0.316229999
        },
        {
          "paramId": 6,
          "value": 0.0
        },
        {
          "paramId": 7,
          "value": 0.602999985
        },
        {
          "paramId": 8,
          "value": 1.0
        },
        {
          "paramId": 9,
          "value": 1.0
        },
        {
          "paramId": 10,
          "value": 0.0
        },
        {
          "paramId": 11,
          "value": 0.0
        }
      ],
      "data": {
        "linearLevel": false
      },
      "pos": [
        31,
        1
      ]
    },
    {
      "plugin": "Bogaudio",
      "version": "0.6.13",
      "model": "Bogaudio-Mult",
      "params": [],
      "pos": [
        28,
        1
      ]
    },
    {
      "plugin": "ML_modules",
      "version": "0.6.3",
      "model": "Quantum",
      "params": [
        {
          "paramId": 0,
          "value": 0.0
        },
        {
          "paramId": 1,
          "value": 0.0
        },
        {
          "paramId": 2,
          "value": 0.0
        },
        {
          "paramId": 3,
          "value": 0.0
        },
        {
          "paramId": 4,
          "value": 0.0
        },
        {
          "paramId": 5,
          "value": 0.0
        },
        {
          "paramId": 6,
          "value": 0.0
        },
        {
          "paramId": 7,
          "value": 0.0
        },
        {
          "paramId": 8,
          "value": 0.0
        },
        {
          "paramId": 9,
          "value": 0.0
        },
        {
          "paramId": 10,
          "value": 0.0
        },
        {
          "paramId": 11,
          "value": 0.0
        }
      ],
      "data": {
        "scale": [
          1,
          0,
          0,
          1,
          0,
          1,
          0,
          1,
          0,
          0,
          1,
          0
        ],
        "mode": 3
      },
      "pos": [
        47,
        1
      ]
    },
    {
      "plugin": "Bogaudio",
      "version": "0.6.13",
      "model": "Bogaudio-Mult",
      "params": [],
      "pos": [
        55,
        1
      ]
    },
    {
      "plugin": "Bogaudio",
      "version": "0.6.13",
      "model": "Bogaudio-FMOp",
      "params": [
        {
          "paramId": 0,
          "value": 0.0
        },
        {
          "paramId": 1,
          "value": 0.0
        },
        {
          "paramId": 2,
          "value": 0.0555000007
        },
        {
          "paramId": 3,
          "value": 0.316229999
        },
        {
          "paramId": 4,
          "value": 1.0
        },
        {
          "paramId": 5,
          "value": 0.316229999
        },
        {
          "paramId": 6,
          "value": 0.0
        },
        {
          "paramId": 7,
          "value": 0.56250006
        },
        {
          "paramId": 8,
          "value": 1.0
        },
        {
          "paramId": 9,
          "value": 1.0
        },
        {
          "paramId": 10,
          "value": 0.0
        },
        {
          "paramId": 11,
          "value": 0.0
        }
      ],
      "data": {
        "linearLevel": false
      },
      "pos": [
        58,
        1
      ]
    },
    {
      "plugin": "Bogaudio",
      "version": "0.6.13",
      "model": "Bogaudio-FMOp",
      "params": [
        {
          "paramId": 0,
          "value": 0.0
        },
        {
          "paramId": 1,
          "value": 0.0
        },
        {
          "paramId": 2,
          "value": 0.0555000007
        },
        {
          "paramId": 3,
          "value": 0.316229999
        },
        {
          "paramId": 4,
          "value": 1.0
        },
        {
          "paramId": 5,
          "value": 0.316229999
        },
        {
          "paramId": 6,
          "value": 0.0
        },
        {
          "paramId": 7,
          "value": 0.561000049
        },
        {
          "paramId": 8,
          "value": 1.0
        },
        {
          "paramId": 9,
          "value": 1.0
        },
        {
          "paramId": 10,
          "value": 0.0
        },
        {
          "paramId": 11,
          "value": 0.0
        }
      ],
      "data": {
        "linearLevel": false
      },
      "pos": [
        75,
        1
      ]
    },
    {
      "plugin": "Bogaudio",
      "version": "0.6.13",
      "model": "Bogaudio-FMOp",
      "params": [
        {
          "paramId": 0,
          "value": 0.0
        },
        {
          "paramId": 1,
          "value": 0.0
        },
        {
          "paramId": 2,
          "value": 0.0555000007
        },
        {
          "paramId": 3,
          "value": 0.316229999
        },
        {
          "paramId": 4,
          "value": 1.0
        },
        {
          "paramId": 5,
          "value": 0.316229999
        },
        {
          "paramId": 6,
          "value": 0.0
        },
        {
          "paramId": 7,
          "value": 0.639000058
        },
        {
          "paramId": 8,
          "value": 1.0
        },
        {
          "paramId": 9,
          "value": 1.0
        },
        {
          "paramId": 10,
          "value": 0.0
        },
        {
          "paramId": 11,
          "value": 0.0
        }
      ],
      "data": {
        "linearLevel": false
      },
      "pos": [
        89,
        1
      ]
    },
    {
      "plugin": "21kHz",
      "version": "0.6.1",
      "model": "kHzD_Inf",
      "params": [
        {
          "paramId": 0,
          "value": 0.0
        },
        {
          "paramId": 1,
          "value": 7.0
        },
        {
          "paramId": 2,
          "value": 0.0
        },
        {
          "paramId": 3,
          "value": 0.0
        }
      ],
      "pos": [
        71,
        1
      ]
    },
    {
      "plugin": "21kHz",
      "version": "0.6.1",
      "model": "kHzD_Inf",
      "params": [
        {
          "paramId": 0,
          "value": 0.0
        },
        {
          "paramId": 1,
          "value": 7.0
        },
        {
          "paramId": 2,
          "value": 0.0
        },
        {
          "paramId": 3,
          "value": 0.0
        }
      ],
      "pos": [
        85,
        1
      ]
    },
    {
      "plugin": "Bogaudio",
      "version": "0.6.13",
      "model": "Bogaudio-Mult",
      "params": [],
      "pos": [
        68,
        1
      ]
    },
    {
      "plugin": "ML_modules",
      "version": "0.6.3",
      "model": "Quantum",
      "params": [
        {
          "paramId": 0,
          "value": 0.0
        },
        {
          "paramId": 1,
          "value": 0.0
        },
        {
          "paramId": 2,
          "value": 0.0
        },
        {
          "paramId": 3,
          "value": 0.0
        },
        {
          "paramId": 4,
          "value": 0.0
        },
        {
          "paramId": 5,
          "value": 0.0
        },
        {
          "paramId": 6,
          "value": 0.0
        },
        {
          "paramId": 7,
          "value": 0.0
        },
        {
          "paramId": 8,
          "value": 0.0
        },
        {
          "paramId": 9,
          "value": 0.0
        },
        {
          "paramId": 10,
          "value": 0.0
        },
        {
          "paramId": 11,
          "value": 0.0
        }
      ],
      "data": {
        "scale": [
          1,
          0,
          0,
          1,
          0,
          1,
          0,
          1,
          0,
          0,
          1,
          0
        ],
        "mode": 0
      },
      "pos": [
        76,
        0
      ]
    },
    {
      "plugin": "Bogaudio",
      "version": "0.6.13",
      "model": "Bogaudio-Mult",
      "params": [],
      "pos": [
        99,
        1
      ]
    },
    {
      "plugin": "ImpromptuModular",
      "version": "0.6.16",
      "model": "Twelve-Key",
      "params": [
        {
          "paramId": 3,
          "value": 0.0
        },
        {
          "paramId": 5,
          "value": 0.0
        },
        {
          "paramId": 8,
          "value": 0.0
        },
        {
          "paramId": 10,
          "value": 0.0
        },
        {
          "paramId": 12,
          "value": 0.0
        },
        {
          "paramId": 2,
          "value": 0.0
        },
        {
          "paramId": 4,
          "value": 0.0
        },
        {
          "paramId": 6,
          "value": 0.0
        },
        {
          "paramId": 7,
          "value": 0.0
        },
        {
          "paramId": 9,
          "value": 0.0
        },
        {
          "paramId": 11,
          "value": 0.0
        },
        {
          "paramId": 13,
          "value": 0.0
        },
        {
          "paramId": 1,
          "value": 0.0
        },
        {
          "paramId": 0,
          "value": 0.0
        }
      ],
      "data": {
        "panelTheme": 0,
        "cv": 0.166666672,
        "octave": 4,
        "stateInternal": true
      },
      "pos": [
        0,
        1
      ]
    },
    {
      "plugin": "Bogaudio",
      "version": "0.6.13",
      "model": "Bogaudio-SampleHold",
      "params": [
        {
          "paramId": 0,
          "value": 0.0
        },
        {
          "paramId": 1,
          "value": 0.0
        },
        {
          "paramId": 2,
          "value": 0.0
        },
        {
          "paramId": 3,
          "value": 0.0
        }
      ],
      "pos": [
        41,
        1
      ]
    },
    {
      "plugin": "Bogaudio",
      "version": "0.6.13",
      "model": "Bogaudio-Mult",
      "params": [],
      "pos": [
        44,
        1
      ]
    },
    {
      "plugin": "AudibleInstruments",
      "version": "0.6.3",
      "model": "Marbles",
      "params": [
        {
          "paramId": 0,
          "value": 0.0
        },
        {
          "paramId": 1,
          "value": 0.0
        },
        {
          "paramId": 2,
          "value": 0.760999978
        },
        {
          "paramId": 3,
          "value": 0.20100008
        },
        {
          "paramId": 4,
          "value": 0.5
        },
        {
          "paramId": 5,
          "value": 0.0
        },
        {
          "paramId": 6,
          "value": 0.0
        },
        {
          "paramId": 7,
          "value": 1.0
        },
        {
          "paramId": 8,
          "value": 0.5
        },
        {
          "paramId": 9,
          "value": 0.5
        },
        {
          "paramId": 10,
          "value": 0.0
        },
        {
          "paramId": 11,
          "value": 0.0
        },
        {
          "paramId": 12,
          "value": 0.0
        },
        {
          "paramId": 13,
          "value": 0.0
        },
        {
          "paramId": 14,
          "value": 0.5
        }
      ],
      "data": {
        "t_deja_vu": true,
        "x_deja_vu": true,
        "t_mode": 0,
        "x_mode": 0,
        "t_range": 1,
        "x_range": 2,
        "external": false,
        "x_scale": 0,
        "y_divider_index": 8,
        "x_clock_source_internal": 0
      },
      "pos": [
        0,
        0
      ]
    },
    {
      "plugin": "21kHz",
      "version": "0.6.1",
      "model": "kHzPalmLoop",
      "params": [
        {
          "paramId": 0,
          "value": 8.0
        },
        {
          "paramId": 1,
          "value": 0.0
        },
        {
          "paramId": 2,
          "value": 0.0
        },
        {
          "paramId": 3,
          "value": 0.0
        },
        {
          "paramId": 4,
          "value": 0.0
        }
      ],
      "pos": [
        84,
        0
      ]
    },
    {
      "plugin": "Bidoo",
      "version": "0.6.27",
      "model": "pErCO",
      "params": [
        {
          "paramId": 0,
          "value": 0.497499943
        },
        {
          "paramId": 1,
          "value": 0.549550056
        },
        {
          "paramId": 2,
          "value": 0.0
        }
      ],
      "pos": [
        92,
        0
      ]
    }
  ],
  "wires": [
    {
      "color": "#c91847",
      "outputModuleId": 1,
      "outputId": 2,
      "inputModuleId": 0,
      "inputId": 0
    },
    {
      "color": "#c91847",
      "outputModuleId": 1,
      "outputId": 3,
      "inputModuleId": 0,
      "inputId": 1
    },
    {
      "color": "#c91847",
      "outputModuleId": 2,
      "outputId": 0,
      "inputModuleId": 1,
      "inputId": 2
    },
    {
      "color": "#c91847",
      "outputModuleId": 2,
      "outputId": 1,
      "inputModuleId": 1,
      "inputId": 3
    },
    {
      "color": "#c91847",
      "outputModuleId": 3,
      "outputId": 2,
      "inputModuleId": 2,
      "inputId": 0
    },
    {
      "color": "#c91847",
      "outputModuleId": 3,
      "outputId": 3,
      "inputModuleId": 2,
      "inputId": 1
    },
    {
      "color": "#c91847",
      "outputModuleId": 4,
      "outputId": 1,
      "inputModuleId": 3,
      "inputId": 2
    },
    {
      "color": "#c91847",
      "outputModuleId": 4,
      "outputId": 2,
      "inputModuleId": 3,
      "inputId": 3
    },
    {
      "color": "#c91847",
      "outputModuleId": 5,
      "outputId": 1,
      "inputModuleId": 4,
      "inputId": 5
    },
    {
      "color": "#c91847",
      "outputModuleId": 5,
      "outputId": 2,
      "inputModuleId": 4,
      "inputId": 6
    },
    {
      "color": "#c91847",
      "outputModuleId": 6,
      "outputId": 1,
      "inputModuleId": 5,
      "inputId": 5
    },
    {
      "color": "#c91847",
      "outputModuleId": 6,
      "outputId": 2,
      "inputModuleId": 5,
      "inputId": 6
    },
    {
      "color": "#c91847",
      "outputModuleId": 7,
      "outputId": 1,
      "inputModuleId": 6,
      "inputId": 5
    },
    {
      "color": "#c91847",
      "outputModuleId": 7,
      "outputId": 2,
      "inputModuleId": 6,
      "inputId": 6
    },
    {
      "color": "#0986ad",
      "outputModuleId": 24,
      "outputId": 4,
      "inputModuleId": 20,
      "inputId": 0
    },
    {
      "color": "#c9b70e",
      "outputModuleId": 8,
      "outputId": 0,
      "inputModuleId": 10,
      "inputId": 0
    },
    {
      "color": "#c91847",
      "outputModuleId": 10,
      "outputId": 0,
      "inputModuleId": 9,
      "inputId": 4
    },
    {
      "color": "#0c8e15",
      "outputModuleId": 10,
      "outputId": 1,
      "inputModuleId": 9,
      "inputId": 0
    },
    {
      "color": "#0986ad",
      "outputModuleId": 10,
      "outputId": 2,
      "inputModuleId": 9,
      "inputId": 2
    },
    {
      "color": "#c9b70e",
      "outputModuleId": 8,
      "outputId": 2,
      "inputModuleId": 18,
      "inputId": 0
    },
    {
      "color": "#c91847",
      "outputModuleId": 9,
      "outputId": 0,
      "inputModuleId": 5,
      "inputId": 8
    },
    {
      "color": "#0986ad",
      "outputModuleId": 24,
      "outputId": 5,
      "inputModuleId": 11,
      "inputId": 0
    },
    {
      "color": "#c9b70e",
      "outputModuleId": 11,
      "outputId": 0,
      "inputModuleId": 12,
      "inputId": 0
    },
    {
      "color": "#c91847",
      "outputModuleId": 12,
      "outputId": 0,
      "inputModuleId": 13,
      "inputId": 4
    },
    {
      "color": "#0c8e15",
      "outputModuleId": 12,
      "outputId": 1,
      "inputModuleId": 13,
      "inputId": 0
    },
    {
      "color": "#0986ad",
      "outputModuleId": 12,
      "outputId": 2,
      "inputModuleId": 13,
      "inputId": 2
    },
    {
      "color": "#c9b70e",
      "outputModuleId": 11,
      "outputId": 2,
      "inputModuleId": 13,
      "inputId": 5
    },
    {
      "color": "#c91847",
      "outputModuleId": 13,
      "outputId": 0,
      "inputModuleId": 6,
      "inputId": 8
    },
    {
      "color": "#0c8e15",
      "outputModuleId": 10,
      "outputId": 3,
      "inputModuleId": 16,
      "inputId": 2
    },
    {
      "color": "#0986ad",
      "outputModuleId": 10,
      "outputId": 4,
      "inputModuleId": 14,
      "inputId": 0
    },
    {
      "color": "#c9b70e",
      "outputModuleId": 10,
      "outputId": 5,
      "inputModuleId": 14,
      "inputId": 2
    },
    {
      "color": "#c91847",
      "outputModuleId": 16,
      "outputId": 0,
      "inputModuleId": 14,
      "inputId": 4
    },
    {
      "color": "#0c8e15",
      "outputModuleId": 18,
      "outputId": 0,
      "inputModuleId": 9,
      "inputId": 5
    },
    {
      "color": "#0986ad",
      "outputModuleId": 18,
      "outputId": 1,
      "inputModuleId": 14,
      "inputId": 5
    },
    {
      "color": "#c9b70e",
      "outputModuleId": 18,
      "outputId": 2,
      "inputModuleId": 15,
      "inputId": 5
    },
    {
      "color": "#c91847",
      "outputModuleId": 12,
      "outputId": 3,
      "inputModuleId": 17,
      "inputId": 2
    },
    {
      "color": "#0c8e15",
      "outputModuleId": 17,
      "outputId": 0,
      "inputModuleId": 15,
      "inputId": 4
    },
    {
      "color": "#0986ad",
      "outputModuleId": 12,
      "outputId": 4,
      "inputModuleId": 15,
      "inputId": 0
    },
    {
      "color": "#c9b70e",
      "outputModuleId": 12,
      "outputId": 5,
      "inputModuleId": 15,
      "inputId": 2
    },
    {
      "color": "#c91847",
      "outputModuleId": 14,
      "outputId": 0,
      "inputModuleId": 4,
      "inputId": 8
    },
    {
      "color": "#0c8e15",
      "outputModuleId": 15,
      "outputId": 0,
      "inputModuleId": 4,
      "inputId": 9
    },
    {
      "color": "#0986ad",
      "outputModuleId": 25,
      "outputId": 0,
      "inputModuleId": 26,
      "inputId": 0
    },
    {
      "color": "#c9b70e",
      "outputModuleId": 20,
      "outputId": 0,
      "inputModuleId": 8,
      "inputId": 0
    },
    {
      "color": "#c91847",
      "outputModuleId": 20,
      "outputId": 1,
      "inputModuleId": 19,
      "inputId": 0
    },
    {
      "color": "#0c8e15",
      "outputModuleId": 19,
      "outputId": 0,
      "inputModuleId": 25,
      "inputId": 1
    },
    {
      "color": "#0986ad",
      "outputModuleId": 21,
      "outputId": 1,
      "inputModuleId": 22,
      "inputId": 3
    },
    {
      "color": "#c9b70e",
      "outputModuleId": 24,
      "outputId": 1,
      "inputModuleId": 22,
      "inputId": 2
    },
    {
      "color": "#c91847",
      "outputModuleId": 22,
      "outputId": 1,
      "inputModuleId": 23,
      "inputId": 0
    },
    {
      "color": "#0c8e15",
      "outputModuleId": 23,
      "outputId": 0,
      "inputModuleId": 8,
      "inputId": 1
    },
    {
      "color": "#0986ad",
      "outputModuleId": 23,
      "outputId": 1,
      "inputModuleId": 11,
      "inputId": 1
    },
    {
      "color": "#c9b70e",
      "outputModuleId": 23,
      "outputId": 2,
      "inputModuleId": 19,
      "inputId": 1
    },
    {
      "color": "#c9b70e",
      "outputModuleId": 26,
      "outputId": 0,
      "inputModuleId": 7,
      "inputId": 8
    }
  ]
}